<svg id="Capa_1" data-name="Capa 1" xmlns="http://www.w3.org/2000/svg" viewBox="0 0 2247.72 778.5"><defs><style>.cls-1{fill:#4280eb;}.cls-2,.cls-4{fill:#fff;}.cls-3{fill:#f16b46;}.cls-4{font-size:107.37px;font-family:DINNextLTPro-Medium, DIN Next LT Pro;letter-spacing:0.1em;}.cls-5{letter-spacing:0.09em;}.cls-6{letter-spacing:0.1em;}</style></defs><title>Ocean logo</title><rect class="cls-1" x="-368.09" y="-428.41" width="2989.9" height="1635.31"/><path class="cls-2" d="M2066.51,172h-12.67c-31.65,0-57,9.65-78.92,26.18-23.36-18-60.34-26.18-114.6-26.18-58,0-96.85,12.36-125.46,30.56-2.93,1.95-3.67,5.21-1.47,8.46L1760.54,254c2.2,3.25,6.6,3.9,10.27,1.3,16.88-11.7,41.09-21.45,80.71-21.45,59.42,0,78.5,16.25,78.5,52v14.95q0,3.9-4.4,3.9h-71.9c-87.31,0-141.6,31.21-141.6,99.49,0,65.68,54.29,95.59,118.85,95.59h45c95.17,0,125.5-54.33,125.5-104.4,0-30.77,0-80.56,0-80.56,0-40.19,15.15-75,56.63-75.21,41.49.18,62.93,25.57,62.93,65.75V484.38c0,3.9,2.78,6.5,7,6.5h64c4.18,0,7-2.6,7-6.5V288.43C2199,221.45,2138.19,172,2066.51,172ZM1930,387.27c0,35.76-27.88,53.32-78.5,53.32-39.62,0-60.9-13-60.9-39,0-29.26,23.48-42.27,76.3-42.27h58.7q4.39,0,4.4,3.91Z"/><path class="cls-2" d="M1243.54,237.5c29.35,0,47.69,9.75,65.3,27.31,2.94,3.25,6.6,3.9,10.27,1.3l46.22-35.77c3.67-2.6,2.94-6.5.74-9.1-27.88-29.91-69.7-48.77-122.53-48.77-47.68,0-87.78,13.74-115.23,39.63-27.24-26.09-67.47-40.53-115.36-40.53-71.9,0-126.2,31.86-146,86.48-8.07,22.11-11.74,42.92-11.74,77.38s3.67,55.27,11.74,77.38c19.8,54.62,74.1,86.48,146,86.48,47.33,0,87.18-14.11,114.41-39.62,27.47,26.47,67.94,40.53,116.18,40.53,52.83,0,94.65-18.86,122.53-48.12,2.2-3.25,2.93-6.5-.74-9.1l-46.22-35.77c-3.67-2.6-7.33-2.6-10.27.65-17.61,17.56-35.95,27.31-65.3,27.31-31.54,0-55.75-13.65-66-40.31-5.87-15.61-7.33-34.47-7.33-58.53s1.46-42.26,7.33-57.87C1187.79,251.15,1212,237.5,1243.54,237.5ZM1079,393.3c-10.27,26-33,41-66,41s-56.5-15-66.77-41c-5.87-16.25-7.33-31.21-7.33-57.87s1.46-41,7.33-57.87c10.27-26,33.75-41,66.77-41s55.76,15,66,41c5.87,16.9,7.34,31.21,7.34,57.87S1084.85,377.05,1079,393.3Z"/><path class="cls-2" d="M1530.06,172.47c-68.68,0-121.62,31.86-140.93,86.49-7.16,20.15-11.45,44.86-11.45,77.37s5,56.58,12.16,76.73c19.32,54.63,70.83,87.14,143.8,87.14,63.67,0,112.32-22.11,141.65-53.32,2.86-3.25,2.86-6.5-.71-9.11L1632.37,404c-3.58-2.6-7.16-1.95-10.73,1.3-17.17,16.91-42.21,29.91-80.85,29.91s-65.81-16.9-77.26-47.46a63.5,63.5,0,0,1-5-24.06q0-3.91,4.29-3.91h212.48c5,0,7.87-2.6,7.87-6.5,0-50.72-3.58-72.18-11.45-94.28C1652.4,205.63,1600.89,172.47,1530.06,172.47Zm68,132.65H1462.81q-4.29,0-4.29-3.9c0-11.05,1.43-18.86,4.29-26.66,9.3-25.36,35.06-40.31,68-40.31,32.19,0,58,14.95,67.25,40.31,2.86,7.8,4.29,15.61,4.29,26.66Q1602.32,305.12,1598,305.12Z"/><path class="cls-3" d="M607.48,118.94c-7.85-5.43-20-4.54-27.1,1.88L535.49,162c-7,6.44-6.49,16.32,1.2,22,0,0,69.38,50.83,69.38,160.22,0,103.69-73.15,163.41-73.15,163.41-7.36,6-7.65,16.24-.6,22.68l44.57,40.54c7,6.47,19.28,7.28,27.16,1.95,0,0,104.77-71.23,104.77-228.2,0-155.94-101.34-225.63-101.34-225.63"/><path class="cls-2" d="M346.56,240.65c-14-29.56-42.9-51.55-86.9-51.55s-73,22-86.94,51.55c-8,18.14-11,31.5-12,53.42H358.62c-1.06-21.92-4-35.28-12.06-53.42M174,379s-13-1.23-13,9.25c0,59.26,44.19,101.48,113.61,101.48,51.5,0,73.54-12.35,104.66-35.71,7.28-5.45,15-10.47,20.93-4.1C404.33,454.36,459,504.8,459,504.8c6.85,6.39,4.95,14.06-2.38,20.23s-89,69.67-183,69.67c-122.87,0-240.83-53.45-240.83-254.8,0-162.19,91.94-253.84,226.87-253.84,144.91,0,226.83,101.14,226.83,237.62v34.53c0,14.06-11.44,20.81-20.83,20.81Z"/><text class="cls-4" transform="translate(1101.54 683.41) scale(1.13 1)">a digital journ<tspan class="cls-5" x="807.76" y="0">e</tspan><tspan class="cls-6" x="873.79" y="0">y </tspan></text></svg>