<svg id="Capa_1" data-name="Capa 1" xmlns="http://www.w3.org/2000/svg" viewBox="0 0 2267.72 765.35"><defs><style>.cls-1,.cls-3{fill:#4280eb;}.cls-2{fill:#f16b46;}.cls-3{font-size:107.37px;font-family:DINNextLTPro-Medium, DIN Next LT Pro;letter-spacing:0.1em;}.cls-4{letter-spacing:0.09em;}.cls-5{letter-spacing:0.1em;}</style></defs><title>Ocean logo-svg</title><path class="cls-1" d="M2079.93,158.88h-12.68c-31.65,0-57,9.65-78.92,26.18-23.36-17.94-60.34-26.18-114.6-26.18-58,0-96.84,12.36-125.46,30.57-2.93,2-3.67,5.2-1.47,8.45L1774,240.82c2.2,3.25,6.6,3.9,10.27,1.3,16.88-11.71,41.09-21.46,80.71-21.46,59.43,0,78.5,16.25,78.5,52v14.95q0,3.92-4.4,3.91h-71.9c-87.31,0-141.6,31.21-141.6,99.48,0,65.68,54.29,95.59,118.85,95.59h45c95.17,0,125.5-54.33,125.5-104.39,0-30.77,0-80.57,0-80.57,0-40.18,15.15-75,56.63-75.21,41.49.18,62.93,25.57,62.93,65.76v179c0,3.91,2.78,6.51,7,6.51h64c4.18,0,7-2.6,7-6.51v-196C2212.44,208.3,2151.6,158.88,2079.93,158.88Zm-136.5,215.24c0,35.76-27.88,53.32-78.5,53.32-39.62,0-60.9-13-60.9-39,0-29.26,23.48-42.26,76.3-42.26H1939q4.4,0,4.4,3.9Z"/><path class="cls-1" d="M1257,224.35c29.34,0,47.69,9.75,65.29,27.31,2.94,3.25,6.61,3.9,10.27,1.3l46.23-35.76c3.66-2.6,2.93-6.51.73-9.11-27.88-29.91-69.7-48.77-122.52-48.77-47.69,0-87.78,13.75-115.24,39.63-27.24-26.08-67.47-40.53-115.36-40.53-71.9,0-126.19,31.86-146,86.48-8.07,22.11-11.74,42.92-11.74,77.38s3.67,55.27,11.74,77.38c19.81,54.62,74.1,86.49,146,86.49,47.33,0,87.18-14.11,114.41-39.62,27.47,26.46,67.94,40.52,116.19,40.52,52.82,0,94.64-18.86,122.52-48.12,2.2-3.25,2.93-6.5-.73-9.1l-46.23-35.76c-3.66-2.61-7.33-2.61-10.27.65-17.6,17.55-36,27.31-65.29,27.31-31.55,0-55.76-13.66-66-40.32-5.87-15.61-7.33-34.46-7.33-58.52s1.46-42.27,7.33-57.87C1201.2,238,1225.41,224.35,1257,224.35Zm-164.57,155.8c-10.27,26-33,41-66,41s-56.49-15-66.77-41c-5.87-16.25-7.33-31.21-7.33-57.87s1.46-41,7.33-57.87c10.28-26,33.75-41,66.77-41s55.76,15,66,41c5.87,16.91,7.34,31.21,7.34,57.87S1098.26,363.9,1092.39,380.15Z"/><path class="cls-1" d="M1543.47,159.32c-68.68,0-121.62,31.87-140.93,86.49-7.16,20.16-11.45,44.87-11.45,77.38s5,56.57,12.16,76.73c19.32,54.62,70.83,87.13,143.8,87.13,63.67,0,112.32-22.11,141.65-53.32,2.86-3.25,2.86-6.5-.71-9.1l-42.21-33.82c-3.58-2.6-7.16-1.95-10.73,1.3C1617.88,409,1592.84,422,1554.2,422s-65.81-16.91-77.26-47.47a63.46,63.46,0,0,1-5-24.06q0-3.9,4.29-3.9H1688.7c5,0,7.87-2.6,7.87-6.51,0-50.72-3.58-72.17-11.44-94.28C1665.81,192.49,1614.3,159.32,1543.47,159.32Zm68,132.66H1476.22q-4.29,0-4.29-3.91c0-11.05,1.43-18.85,4.29-26.66,9.31-25.36,35.06-40.31,68-40.31,32.19,0,58,15,67.25,40.31,2.86,7.81,4.29,15.61,4.29,26.66Q1615.73,292,1611.44,292Z"/><path class="cls-2" d="M620.9,105.8c-7.86-5.43-20-4.54-27.11,1.87L548.9,148.84c-7,6.44-6.49,16.31,1.2,22,0,0,69.38,50.82,69.38,160.21,0,103.69-73.15,163.41-73.15,163.41-7.36,6-7.64,16.25-.6,22.69l44.57,40.54c7,6.46,19.28,7.28,27.16,1.94,0,0,104.77-71.23,104.77-228.2,0-155.93-101.33-225.62-101.33-225.62"/><path class="cls-1" d="M360,227.5c-14-29.56-42.9-51.54-86.9-51.54s-72.95,22-86.94,51.54c-8,18.15-11,31.51-12,53.42H372C371,259,368,245.65,360,227.5M187.45,365.87s-13-1.22-13,9.25c0,59.27,44.19,101.49,113.61,101.49,51.5,0,73.54-12.35,104.66-35.71,7.28-5.46,15-10.48,20.93-4.11,4.11,4.42,58.78,54.86,58.78,54.86,6.85,6.39,4.95,14.06-2.38,20.24s-89,69.66-183,69.66c-122.87,0-240.84-53.44-240.84-254.8,0-162.18,91.94-253.84,226.87-253.84C418,72.91,499.9,174.06,499.9,310.53v34.53c0,14.06-11.44,20.81-20.83,20.81Z"/><text class="cls-3" transform="translate(1118.79 670.26) scale(1.13 1)">a digital journ<tspan class="cls-4" x="807.76" y="0">e</tspan><tspan class="cls-5" x="873.79" y="0">y </tspan></text></svg>