<?xml version="1.0" encoding="utf-8"?>
<!-- Generator: Adobe Illustrator 22.1.0, SVG Export Plug-In . SVG Version: 6.00 Build 0)  -->
<svg version="1.1" id="Capa_1" xmlns="http://www.w3.org/2000/svg" xmlns:xlink="http://www.w3.org/1999/xlink" x="0px" y="0px"
	 viewBox="0 0 2267.7 765.3" style="enable-background:new 0 0 2267.7 765.3;" xml:space="preserve">
<style type="text/css">
	.st0{fill:#FFFFFF;stroke:#E5E5E5;stroke-miterlimit:10;}
	.st1{enable-background:new    ;}
	.st2{fill:#FFFFFF;}
	.st3{fill:none;stroke:#E5E5E5;stroke-miterlimit:10;}
</style>
<title>Ocean logo-svg-wh</title>
<path class="st0" d="M2088.8,154.8h-12.7c-31.7,0-57,9.6-78.9,26.2c-23.4-17.9-60.3-26.2-114.6-26.2c-58,0-96.8,12.4-125.5,30.6
	c-2.9,1.9-3.7,5.2-1.5,8.4l27.1,42.9c2.2,3.2,6.6,3.9,10.3,1.3c16.9-11.7,41.1-21.5,80.7-21.5c59.4,0,78.5,16.2,78.5,52v15
	c0,2.6-1.5,3.9-4.4,3.9H1876c-87.3,0-141.6,31.2-141.6,99.5c0,65.7,54.3,95.6,118.9,95.6h45c95.2,0,125.5-54.3,125.5-104.4
	c0-30.8,0-80.6,0-80.6c0-40.2,15.2-75,56.6-75.2c41.5,0.2,62.9,25.6,62.9,65.8v179c0,3.9,2.8,6.5,7,6.5h64c4.2,0,6.9-2.6,6.9-6.5
	V271.2C2221.3,204.2,2160.5,154.8,2088.8,154.8z M1952.3,370c0,35.8-27.9,53.3-78.5,53.3c-39.6,0-60.9-13-60.9-39
	c0-29.3,23.5-42.3,76.3-42.3h58.7c2.9,0,4.4,1.3,4.4,3.9V370z"/>
<path class="st0" d="M1265.8,220.2c29.3,0,47.7,9.8,65.3,27.3c2.9,3.2,6.6,3.9,10.3,1.3l46.2-35.8c3.7-2.6,2.9-6.5,0.7-9.1
	c-27.9-29.9-69.7-48.8-122.5-48.8c-47.7,0-87.8,13.8-115.2,39.6c-27.2-26.1-67.5-40.5-115.4-40.5c-71.9,0-126.2,31.9-146,86.5
	c-8.1,22.1-11.7,42.9-11.7,77.4s3.7,55.3,11.7,77.4c19.8,54.6,74.1,86.5,146,86.5c47.3,0,87.2-14.1,114.4-39.6
	c27.5,26.5,67.9,40.5,116.2,40.5c52.8,0,94.6-18.9,122.5-48.1c2.2-3.2,2.9-6.5-0.7-9.1l-46.2-35.7c-3.7-2.6-7.3-2.6-10.3,0.6
	c-17.6,17.5-36,27.3-65.3,27.3c-31.6,0-55.8-13.7-66-40.3c-5.9-15.6-7.3-34.5-7.3-58.5s1.5-42.3,7.3-57.9
	C1210.1,233.9,1234.3,220.2,1265.8,220.2z M1101.3,376c-10.3,26-33,41-66,41s-56.5-15-66.8-41c-5.9-16.2-7.3-31.2-7.3-57.9
	s1.5-41,7.3-57.9c10.3-26,33.8-41,66.8-41s55.8,15,66,41c5.9,16.9,7.3,31.2,7.3,57.9S1107.2,359.8,1101.3,376z"/>
<path class="st0" d="M1552.4,155.2c-68.7,0-121.6,31.9-140.9,86.5c-7.2,20.2-11.4,44.9-11.4,77.4s5,56.6,12.2,76.7
	c19.3,54.6,70.8,87.1,143.8,87.1c63.7,0,112.3-22.1,141.7-53.3c2.9-3.2,2.9-6.5-0.7-9.1l-42.2-33.8c-3.6-2.6-7.2-2-10.7,1.3
	c-17.2,16.9-42.2,29.9-80.8,29.9s-65.8-16.9-77.3-47.5c-3.2-7.6-4.9-15.8-5-24.1c0-2.6,1.4-3.9,4.3-3.9h212.5c5,0,7.9-2.6,7.9-6.5
	c0-50.7-3.6-72.2-11.4-94.3C1674.7,188.4,1623.2,155.2,1552.4,155.2z M1620.4,287.9h-135.2c-2.9,0-4.3-1.3-4.3-3.9
	c0-11,1.4-18.9,4.3-26.7c9.3-25.4,35.1-40.3,68-40.3c32.2,0,58,15,67.2,40.3c2.9,7.8,4.3,15.6,4.3,26.7
	C1624.6,286.6,1623.2,287.9,1620.4,287.9L1620.4,287.9z"/>
<path class="st0" d="M629.8,101.7c-7.9-5.4-20-4.6-27.1,1.9l-44.9,41.2c-7,6.4-6.5,16.3,1.2,22c0,0,69.4,50.8,69.4,160.2
	c0,103.7-73.2,163.4-73.2,163.4c-6.4,4.9-7.6,14.1-2.7,20.5c0.6,0.8,1.3,1.5,2.1,2.2l44.6,40.5c7,6.5,19.3,7.3,27.2,1.9
	c0,0,104.8-71.2,104.8-228.2C731.1,171.4,629.8,101.7,629.8,101.7"/>
<path class="st0" d="M368.9,223.4c-14-29.6-42.9-51.5-86.9-51.5s-73,22-87,51.5c-8,18.1-11,31.5-12,53.4h198
	C379.9,254.9,377,241.5,368.9,223.4 M196.3,361.8c0,0-13-1.2-13,9.2c0,59.3,44.2,101.5,113.6,101.5c51.5,0,73.5-12.4,104.6-35.7
	c7.3-5.5,15-10.5,20.9-4.1c4.1,4.4,58.8,54.9,58.8,54.9c6.9,6.4,5,14.1-2.4,20.2c-7.4,6.1-89,69.7-183,69.7
	C172.9,577.5,55,524.1,55,322.7c0.1-162.3,92-253.9,227-253.9c144.9,0,226.8,101.2,226.8,237.6v34.5c0,14.1-11.4,20.8-20.8,20.8
	L196.3,361.8L196.3,361.8z"/>
<g class="st1">
	<path class="st2" d="M1177.5,666.1c-0.7,0-1.2-0.4-1.2-1.1v-3.8h-0.1c-2.8,3.5-8.2,6-16.5,6c-10.7,0-19.7-4.9-19.7-15.8
		c0-11.3,9-16.4,23.4-16.4h11.9c0.5,0,0.7-0.2,0.7-0.6V632c0-5.9-3.2-8.6-13-8.6c-6.6,0-10.6,1.6-13.3,3.5c-0.6,0.4-1.3,0.3-1.7-0.2
		l-4.5-7.1c-0.4-0.5-0.2-1.1,0.2-1.4c4.7-3,11.2-5,20.7-5c17.8,0,24.4,5.4,24.4,18v33.8c0,0.6-0.5,1.1-1.2,1.1H1177.5z
		 M1176.1,648.7v-4c0-0.4-0.2-0.6-0.7-0.6h-9.7c-8.7,0-12.6,2.1-12.6,7c0,4.3,3.5,6.4,10.1,6.4
		C1171.5,657.5,1176.1,654.7,1176.1,648.7z"/>
	<path class="st2" d="M1294.6,666.1c-0.7,0-1.2-0.4-1.2-1.1v-3.9h-0.1c-2.8,3.5-7.6,6.1-15.5,6.1c-9.9,0-17.2-4.2-20.3-12.5
		c-1.5-4-2.1-7.6-2.1-14.6s0.6-10.6,2.1-14.6c3-8.3,10.3-12.5,20.3-12.5c7.9,0,12.7,2.6,15.5,6.1h0.1v-25.1c0-0.6,0.5-1.1,1.2-1.1
		h11.2c0.7,0,1.2,0.4,1.2,1.1v70.9c0,0.6-0.5,1.1-1.2,1.1H1294.6z M1292.2,649.9c0.8-2.4,1.2-4.9,1.2-9.7s-0.4-7.3-1.2-9.7
		c-1.6-4.3-5.3-6.7-10.9-6.7c-5.5,0-9.2,2.4-10.8,6.7c-0.8,2.4-1.2,4.9-1.2,9.7s0.4,7.3,1.2,9.7c1.6,4.3,5.3,6.7,10.8,6.7
		C1286.9,656.6,1290.6,654.2,1292.2,649.9z"/>
	<path class="st2" d="M1337.8,604.6c-0.7,0-1.2-0.4-1.2-1.1v-9.3c0-0.6,0.5-1.1,1.2-1.1h11.2c0.7,0,1.2,0.4,1.2,1.1v9.3
		c0,0.6-0.5,1.1-1.2,1.1H1337.8z M1337.8,666.1c-0.7,0-1.2-0.4-1.2-1.1v-49.6c0-0.6,0.5-1.1,1.2-1.1h11.2c0.7,0,1.2,0.4,1.2,1.1
		v49.6c0,0.6-0.5,1.1-1.2,1.1H1337.8z"/>
	<path class="st2" d="M1378.6,678.9c-0.5-0.5-0.5-1,0.1-1.5l7.2-6.3c0.6-0.5,1.2-0.5,1.8,0c3.6,3.1,7.9,4.8,12.7,4.8
		c9,0,13.1-4.3,13.1-12.3v-4.8h-0.1c-2.7,3.7-7.6,6-15.2,6c-9.8,0-16.9-4.4-19.9-12.6c-1.5-4-1.9-7.5-1.9-13.2
		c0-5.7,0.5-9.1,1.9-13.1c3-8.3,10.1-12.7,19.9-12.7c7.5,0,12.5,2.4,15.2,6.1h0.1v-3.9c0-0.6,0.5-1.1,1.2-1.1h11.2
		c0.7,0,1.2,0.4,1.2,1.1v47.5c0,14.8-9.3,23.7-27.3,23.7C1391.7,686.6,1383.1,683.6,1378.6,678.9z M1412.2,647.5
		c1-2.4,1.3-4.9,1.3-8.5c0-3.4-0.4-6-1.3-8.5c-1.6-4.2-4.9-6.6-10.4-6.6c-5.5,0-8.7,2.4-10.3,6.6c-1,2.5-1.3,5-1.3,8.5
		c0,3.5,0.4,6.1,1.3,8.5c1.6,4.3,4.9,6.7,10.3,6.7C1407.3,654.1,1410.6,651.8,1412.2,647.5z"/>
	<path class="st2" d="M1457.9,604.6c-0.7,0-1.2-0.4-1.2-1.1v-9.3c0-0.6,0.5-1.1,1.2-1.1h11.2c0.7,0,1.2,0.4,1.2,1.1v9.3
		c0,0.6-0.5,1.1-1.2,1.1H1457.9z M1457.9,666.1c-0.7,0-1.2-0.4-1.2-1.1v-49.6c0-0.6,0.5-1.1,1.2-1.1h11.2c0.7,0,1.2,0.4,1.2,1.1
		v49.6c0,0.6-0.5,1.1-1.2,1.1H1457.9z"/>
	<path class="st2" d="M1517,666.8c-11.8,0-16.3-5-16.3-15.1v-27.3c0-0.4-0.2-0.6-0.7-0.6h-3.9c-0.7,0-1.2-0.4-1.2-1.1v-7.2
		c0-0.6,0.5-1.1,1.2-1.1h3.9c0.5,0,0.7-0.2,0.7-0.6v-14.2c0-0.6,0.5-1.1,1.2-1.1h11.2c0.7,0,1.2,0.4,1.2,1.1v14.2
		c0,0.4,0.2,0.6,0.7,0.6h7.8c0.7,0,1.2,0.4,1.2,1.1v7.2c0,0.6-0.5,1.1-1.2,1.1h-7.8c-0.5,0-0.7,0.2-0.7,0.6v26.8
		c0,3.7,1.7,4.8,5.5,4.8h3c0.7,0,1.2,0.4,1.2,1.1v8.6c0,0.6-0.5,1.1-1.2,1.1H1517z"/>
	<path class="st2" d="M1585.6,666.1c-0.7,0-1.2-0.4-1.2-1.1v-3.8h-0.1c-2.8,3.5-8.2,6-16.5,6c-10.7,0-19.7-4.9-19.7-15.8
		c0-11.3,9-16.4,23.4-16.4h11.9c0.5,0,0.7-0.2,0.7-0.6V632c0-5.9-3.2-8.6-13-8.6c-6.6,0-10.6,1.6-13.3,3.5c-0.6,0.4-1.3,0.3-1.7-0.2
		l-4.5-7.1c-0.4-0.5-0.2-1.1,0.2-1.4c4.7-3,11.2-5,20.7-5c17.8,0,24.4,5.4,24.4,18v33.8c0,0.6-0.5,1.1-1.2,1.1H1585.6z
		 M1584.1,648.7v-4c0-0.4-0.2-0.6-0.7-0.6h-9.7c-8.7,0-12.6,2.1-12.6,7c0,4.3,3.5,6.4,10.1,6.4
		C1579.5,657.5,1584.1,654.7,1584.1,648.7z"/>
	<path class="st2" d="M1641.9,666.8c-11.4,0-16-4.8-16-14.8v-57.8c0-0.6,0.5-1.1,1.2-1.1h11.2c0.7,0,1.2,0.4,1.2,1.1v57.1
		c0,3.5,1.6,4.7,5.1,4.7h2.7c0.7,0,1.2,0.4,1.2,1.1v8.6c0,0.6-0.5,1.1-1.2,1.1H1641.9z"/>
	<path class="st2" d="M1704.3,685.5c-0.7,0-1.2-0.4-1.2-1.1v-8.6c0-0.6,0.5-1.1,1.2-1.1h2.7c4.9,0,6.8-1.4,6.8-6.1v-53.2
		c0-0.6,0.5-1.1,1.2-1.1h11.2c0.7,0,1.2,0.4,1.2,1.1v52.9c0,11.9-6.9,17.1-19.7,17.1H1704.3z M1715,604.6c-0.7,0-1.2-0.4-1.2-1.1
		v-9.3c0-0.6,0.5-1.1,1.2-1.1h11.2c0.7,0,1.2,0.4,1.2,1.1v9.3c0,0.6-0.5,1.1-1.2,1.1H1715z"/>
	<path class="st2" d="M1755.8,653c-1.3-3.7-1.9-7.1-1.9-12.8c0-5.7,0.6-9.1,1.9-12.8c3.3-9,12.3-14.3,24.1-14.3
		c11.8,0,20.7,5.3,24,14.3c1.3,3.7,1.9,7.1,1.9,12.8c0,5.7-0.6,9.1-1.9,12.8c-3.3,9-12.3,14.3-24,14.3
		C1768,667.3,1759.1,662.1,1755.8,653z M1790.8,649.8c1-2.7,1.2-5.2,1.2-9.6s-0.2-6.8-1.2-9.6c-1.7-4.3-5.5-6.8-10.9-6.8
		c-5.5,0-9.3,2.5-11,6.8c-1,2.8-1.2,5.2-1.2,9.6s0.2,6.9,1.2,9.6c1.7,4.3,5.6,6.8,11,6.8C1785.4,656.6,1789.1,654.1,1790.8,649.8z"
		/>
	<path class="st2" d="M1868.2,666.1c-0.7,0-1.2-0.4-1.2-1.1v-3.8h-0.1c-3.2,3.5-7.8,6-15.2,6c-12.5,0-20.1-8.2-20.1-19.2v-32.6
		c0-0.6,0.5-1.1,1.2-1.1h11.2c0.7,0,1.2,0.4,1.2,1.1v29.9c0,6.7,3.5,11.3,10.9,11.3c6.9,0,10.9-4.6,10.9-11.2v-30
		c0-0.6,0.5-1.1,1.2-1.1h11.2c0.7,0,1.2,0.4,1.2,1.1v49.6c0,0.6-0.5,1.1-1.2,1.1H1868.2z"/>
	<path class="st2" d="M1911.4,666.1c-0.7,0-1.2-0.4-1.2-1.1v-49.6c0-0.6,0.5-1.1,1.2-1.1h11.2c0.7,0,1.2,0.4,1.2,1.1v4.4h0.1
		c2.8-4,7.8-6.7,15.2-6.7c4.6,0,9.2,1.6,12.3,4.3c0.6,0.5,0.7,1,0.2,1.5l-6.4,7.2c-0.5,0.5-1.1,0.6-1.7,0.2
		c-2.7-1.5-5.5-2.5-8.6-2.5c-7.6,0-11,4.8-11,13.1v28c0,0.6-0.5,1.1-1.2,1.1H1911.4z"/>
	<path class="st2" d="M2010.4,666.1c-0.7,0-1.2-0.4-1.2-1.1v-29.9c0-6.7-3.8-11.3-11-11.3c-7,0-11.2,4.6-11.2,11.3v29.9
		c0,0.6-0.5,1.1-1.2,1.1h-11.2c-0.7,0-1.2-0.4-1.2-1.1v-49.6c0-0.6,0.5-1.1,1.2-1.1h11.2c0.7,0,1.2,0.4,1.2,1.1v3.8h0.1
		c2.5-3.2,7.6-6,15.4-6c12.5,0,20.3,8.2,20.3,19.2v32.6c0,0.6-0.5,1.1-1.2,1.1H2010.4z"/>
</g>
<g class="st1">
	<path class="st3" d="M1177.5,666.1c-0.7,0-1.2-0.4-1.2-1.1v-3.8h-0.1c-2.8,3.5-8.2,6-16.5,6c-10.7,0-19.7-4.9-19.7-15.8
		c0-11.3,9-16.4,23.4-16.4h11.9c0.5,0,0.7-0.2,0.7-0.6V632c0-5.9-3.2-8.6-13-8.6c-6.6,0-10.6,1.6-13.3,3.5c-0.6,0.4-1.3,0.3-1.7-0.2
		l-4.5-7.1c-0.4-0.5-0.2-1.1,0.2-1.4c4.7-3,11.2-5,20.7-5c17.8,0,24.4,5.4,24.4,18v33.8c0,0.6-0.5,1.1-1.2,1.1H1177.5z
		 M1176.1,648.7v-4c0-0.4-0.2-0.6-0.7-0.6h-9.7c-8.7,0-12.6,2.1-12.6,7c0,4.3,3.5,6.4,10.1,6.4
		C1171.5,657.5,1176.1,654.7,1176.1,648.7z"/>
	<path class="st3" d="M1294.6,666.1c-0.7,0-1.2-0.4-1.2-1.1v-3.9h-0.1c-2.8,3.5-7.6,6.1-15.5,6.1c-9.9,0-17.2-4.2-20.3-12.5
		c-1.5-4-2.1-7.6-2.1-14.6s0.6-10.6,2.1-14.6c3-8.3,10.3-12.5,20.3-12.5c7.9,0,12.7,2.6,15.5,6.1h0.1v-25.1c0-0.6,0.5-1.1,1.2-1.1
		h11.2c0.7,0,1.2,0.4,1.2,1.1v70.9c0,0.6-0.5,1.1-1.2,1.1H1294.6z M1292.2,649.9c0.8-2.4,1.2-4.9,1.2-9.7s-0.4-7.3-1.2-9.7
		c-1.6-4.3-5.3-6.7-10.9-6.7c-5.5,0-9.2,2.4-10.8,6.7c-0.8,2.4-1.2,4.9-1.2,9.7s0.4,7.3,1.2,9.7c1.6,4.3,5.3,6.7,10.8,6.7
		C1286.9,656.6,1290.6,654.2,1292.2,649.9z"/>
	<path class="st3" d="M1337.8,604.6c-0.7,0-1.2-0.4-1.2-1.1v-9.3c0-0.6,0.5-1.1,1.2-1.1h11.2c0.7,0,1.2,0.4,1.2,1.1v9.3
		c0,0.6-0.5,1.1-1.2,1.1H1337.8z M1337.8,666.1c-0.7,0-1.2-0.4-1.2-1.1v-49.6c0-0.6,0.5-1.1,1.2-1.1h11.2c0.7,0,1.2,0.4,1.2,1.1
		v49.6c0,0.6-0.5,1.1-1.2,1.1H1337.8z"/>
	<path class="st3" d="M1378.6,678.9c-0.5-0.5-0.5-1,0.1-1.5l7.2-6.3c0.6-0.5,1.2-0.5,1.8,0c3.6,3.1,7.9,4.8,12.7,4.8
		c9,0,13.1-4.3,13.1-12.3v-4.8h-0.1c-2.7,3.7-7.6,6-15.2,6c-9.8,0-16.9-4.4-19.9-12.6c-1.5-4-1.9-7.5-1.9-13.2
		c0-5.7,0.5-9.1,1.9-13.1c3-8.3,10.1-12.7,19.9-12.7c7.5,0,12.5,2.4,15.2,6.1h0.1v-3.9c0-0.6,0.5-1.1,1.2-1.1h11.2
		c0.7,0,1.2,0.4,1.2,1.1v47.5c0,14.8-9.3,23.7-27.3,23.7C1391.7,686.6,1383.1,683.6,1378.6,678.9z M1412.2,647.5
		c1-2.4,1.3-4.9,1.3-8.5c0-3.4-0.4-6-1.3-8.5c-1.6-4.2-4.9-6.6-10.4-6.6c-5.5,0-8.7,2.4-10.3,6.6c-1,2.5-1.3,5-1.3,8.5
		c0,3.5,0.4,6.1,1.3,8.5c1.6,4.3,4.9,6.7,10.3,6.7C1407.3,654.1,1410.6,651.8,1412.2,647.5z"/>
	<path class="st3" d="M1457.9,604.6c-0.7,0-1.2-0.4-1.2-1.1v-9.3c0-0.6,0.5-1.1,1.2-1.1h11.2c0.7,0,1.2,0.4,1.2,1.1v9.3
		c0,0.6-0.5,1.1-1.2,1.1H1457.9z M1457.9,666.1c-0.7,0-1.2-0.4-1.2-1.1v-49.6c0-0.6,0.5-1.1,1.2-1.1h11.2c0.7,0,1.2,0.4,1.2,1.1
		v49.6c0,0.6-0.5,1.1-1.2,1.1H1457.9z"/>
	<path class="st3" d="M1517,666.8c-11.8,0-16.3-5-16.3-15.1v-27.3c0-0.4-0.2-0.6-0.7-0.6h-3.9c-0.7,0-1.2-0.4-1.2-1.1v-7.2
		c0-0.6,0.5-1.1,1.2-1.1h3.9c0.5,0,0.7-0.2,0.7-0.6v-14.2c0-0.6,0.5-1.1,1.2-1.1h11.2c0.7,0,1.2,0.4,1.2,1.1v14.2
		c0,0.4,0.2,0.6,0.7,0.6h7.8c0.7,0,1.2,0.4,1.2,1.1v7.2c0,0.6-0.5,1.1-1.2,1.1h-7.8c-0.5,0-0.7,0.2-0.7,0.6v26.8
		c0,3.7,1.7,4.8,5.5,4.8h3c0.7,0,1.2,0.4,1.2,1.1v8.6c0,0.6-0.5,1.1-1.2,1.1H1517z"/>
	<path class="st3" d="M1585.6,666.1c-0.7,0-1.2-0.4-1.2-1.1v-3.8h-0.1c-2.8,3.5-8.2,6-16.5,6c-10.7,0-19.7-4.9-19.7-15.8
		c0-11.3,9-16.4,23.4-16.4h11.9c0.5,0,0.7-0.2,0.7-0.6V632c0-5.9-3.2-8.6-13-8.6c-6.6,0-10.6,1.6-13.3,3.5c-0.6,0.4-1.3,0.3-1.7-0.2
		l-4.5-7.1c-0.4-0.5-0.2-1.1,0.2-1.4c4.7-3,11.2-5,20.7-5c17.8,0,24.4,5.4,24.4,18v33.8c0,0.6-0.5,1.1-1.2,1.1H1585.6z
		 M1584.1,648.7v-4c0-0.4-0.2-0.6-0.7-0.6h-9.7c-8.7,0-12.6,2.1-12.6,7c0,4.3,3.5,6.4,10.1,6.4
		C1579.5,657.5,1584.1,654.7,1584.1,648.7z"/>
	<path class="st3" d="M1641.9,666.8c-11.4,0-16-4.8-16-14.8v-57.8c0-0.6,0.5-1.1,1.2-1.1h11.2c0.7,0,1.2,0.4,1.2,1.1v57.1
		c0,3.5,1.6,4.7,5.1,4.7h2.7c0.7,0,1.2,0.4,1.2,1.1v8.6c0,0.6-0.5,1.1-1.2,1.1H1641.9z"/>
	<path class="st3" d="M1704.3,685.5c-0.7,0-1.2-0.4-1.2-1.1v-8.6c0-0.6,0.5-1.1,1.2-1.1h2.7c4.9,0,6.8-1.4,6.8-6.1v-53.2
		c0-0.6,0.5-1.1,1.2-1.1h11.2c0.7,0,1.2,0.4,1.2,1.1v52.9c0,11.9-6.9,17.1-19.7,17.1H1704.3z M1715,604.6c-0.7,0-1.2-0.4-1.2-1.1
		v-9.3c0-0.6,0.5-1.1,1.2-1.1h11.2c0.7,0,1.2,0.4,1.2,1.1v9.3c0,0.6-0.5,1.1-1.2,1.1H1715z"/>
	<path class="st3" d="M1755.8,653c-1.3-3.7-1.9-7.1-1.9-12.8c0-5.7,0.6-9.1,1.9-12.8c3.3-9,12.3-14.3,24.1-14.3
		c11.8,0,20.7,5.3,24,14.3c1.3,3.7,1.9,7.1,1.9,12.8c0,5.7-0.6,9.1-1.9,12.8c-3.3,9-12.3,14.3-24,14.3
		C1768,667.3,1759.1,662.1,1755.8,653z M1790.8,649.8c1-2.7,1.2-5.2,1.2-9.6s-0.2-6.8-1.2-9.6c-1.7-4.3-5.5-6.8-10.9-6.8
		c-5.5,0-9.3,2.5-11,6.8c-1,2.8-1.2,5.2-1.2,9.6s0.2,6.9,1.2,9.6c1.7,4.3,5.6,6.8,11,6.8C1785.4,656.6,1789.1,654.1,1790.8,649.8z"
		/>
	<path class="st3" d="M1868.2,666.1c-0.7,0-1.2-0.4-1.2-1.1v-3.8h-0.1c-3.2,3.5-7.8,6-15.2,6c-12.5,0-20.1-8.2-20.1-19.2v-32.6
		c0-0.6,0.5-1.1,1.2-1.1h11.2c0.7,0,1.2,0.4,1.2,1.1v29.9c0,6.7,3.5,11.3,10.9,11.3c6.9,0,10.9-4.6,10.9-11.2v-30
		c0-0.6,0.5-1.1,1.2-1.1h11.2c0.7,0,1.2,0.4,1.2,1.1v49.6c0,0.6-0.5,1.1-1.2,1.1H1868.2z"/>
	<path class="st3" d="M1911.4,666.1c-0.7,0-1.2-0.4-1.2-1.1v-49.6c0-0.6,0.5-1.1,1.2-1.1h11.2c0.7,0,1.2,0.4,1.2,1.1v4.4h0.1
		c2.8-4,7.8-6.7,15.2-6.7c4.6,0,9.2,1.6,12.3,4.3c0.6,0.5,0.7,1,0.2,1.5l-6.4,7.2c-0.5,0.5-1.1,0.6-1.7,0.2
		c-2.7-1.5-5.5-2.5-8.6-2.5c-7.6,0-11,4.8-11,13.1v28c0,0.6-0.5,1.1-1.2,1.1H1911.4z"/>
	<path class="st3" d="M2010.4,666.1c-0.7,0-1.2-0.4-1.2-1.1v-29.9c0-6.7-3.8-11.3-11-11.3c-7,0-11.2,4.6-11.2,11.3v29.9
		c0,0.6-0.5,1.1-1.2,1.1h-11.2c-0.7,0-1.2-0.4-1.2-1.1v-49.6c0-0.6,0.5-1.1,1.2-1.1h11.2c0.7,0,1.2,0.4,1.2,1.1v3.8h0.1
		c2.5-3.2,7.6-6,15.4-6c12.5,0,20.3,8.2,20.3,19.2v32.6c0,0.6-0.5,1.1-1.2,1.1H2010.4z"/>
</g>
<g class="st1">
	<path class="st2" d="M2054.4,652.9c-1.2-3.3-2.1-7.3-2.1-12.7c0-5.4,0.7-9.4,1.9-12.8c3.3-9,12.3-14.3,23.9-14.3
		c12,0,20.7,5.5,24,14.3c1.3,3.7,1.9,7.2,1.9,15.6c0,0.6-0.5,1.1-1.3,1.1h-36c-0.5,0-0.7,0.2-0.7,0.6c0,1.5,0.4,2.8,0.8,4
		c1.9,5,6.6,7.8,13.1,7.8c6.6,0,10.8-2.1,13.7-4.9c0.6-0.5,1.2-0.6,1.8-0.2l7.2,5.6c0.6,0.4,0.6,1,0.1,1.5c-5,5.2-13.2,8.8-24,8.8
		C2066.4,667.3,2057.7,662,2054.4,652.9z M2089.7,630.1c-1.6-4.2-5.9-6.7-11.4-6.7c-5.6,0-9.9,2.5-11.5,6.7
		c-0.5,1.3-0.7,2.6-0.7,4.4c0,0.4,0.2,0.6,0.7,0.6h22.9c0.5,0,0.7-0.2,0.7-0.6C2090.4,632.6,2090.2,631.3,2089.7,630.1z"/>
</g>
<g class="st1">
	<path class="st3" d="M2054.4,652.9c-1.2-3.3-2.1-7.3-2.1-12.7c0-5.4,0.7-9.4,1.9-12.8c3.3-9,12.3-14.3,23.9-14.3
		c12,0,20.7,5.5,24,14.3c1.3,3.7,1.9,7.2,1.9,15.6c0,0.6-0.5,1.1-1.3,1.1h-36c-0.5,0-0.7,0.2-0.7,0.6c0,1.5,0.4,2.8,0.8,4
		c1.9,5,6.6,7.8,13.1,7.8c6.6,0,10.8-2.1,13.7-4.9c0.6-0.5,1.2-0.6,1.8-0.2l7.2,5.6c0.6,0.4,0.6,1,0.1,1.5c-5,5.2-13.2,8.8-24,8.8
		C2066.4,667.3,2057.7,662,2054.4,652.9z M2089.7,630.1c-1.6-4.2-5.9-6.7-11.4-6.7c-5.6,0-9.9,2.5-11.5,6.7
		c-0.5,1.3-0.7,2.6-0.7,4.4c0,0.4,0.2,0.6,0.7,0.6h22.9c0.5,0,0.7-0.2,0.7-0.6C2090.4,632.6,2090.2,631.3,2089.7,630.1z"/>
</g>
<g class="st1">
	<path class="st2" d="M2132.2,685.5c-0.7,0-1.2-0.4-1.2-1.1v-8.6c0-0.6,0.5-1.1,1.2-1.1h2.2c4.6,0,6.9-1.8,8.7-6.1l1.7-4.4
		l-21.4-48.7c-0.2-0.6,0.2-1.1,1-1.1h12c0.7,0,1.2,0.4,1.5,1.1l13.2,33.8h0.2l12.6-33.8c0.2-0.6,0.7-1.1,1.5-1.1h11.5
		c0.7,0,1.2,0.4,1,1.1l-22.3,53.9c-5.1,12.2-9.9,16.1-19.7,16.1H2132.2z"/>
</g>
<g class="st1">
	<path class="st3" d="M2132.2,685.5c-0.7,0-1.2-0.4-1.2-1.1v-8.6c0-0.6,0.5-1.1,1.2-1.1h2.2c4.6,0,6.9-1.8,8.7-6.1l1.7-4.4
		l-21.4-48.7c-0.2-0.6,0.2-1.1,1-1.1h12c0.7,0,1.2,0.4,1.5,1.1l13.2,33.8h0.2l12.6-33.8c0.2-0.6,0.7-1.1,1.5-1.1h11.5
		c0.7,0,1.2,0.4,1,1.1l-22.3,53.9c-5.1,12.2-9.9,16.1-19.7,16.1H2132.2z"/>
</g>
</svg>
