<?xml version="1.0" encoding="utf-8"?>
<!-- Generator: Adobe Illustrator 22.0.0, SVG Export Plug-In . SVG Version: 6.00 Build 0)  -->
<svg version="1.1" id="Layer_1" xmlns="http://www.w3.org/2000/svg" xmlns:xlink="http://www.w3.org/1999/xlink" x="0px" y="0px"
	 viewBox="0 0 482 512.4" style="enable-background:new 0 0 482 512.4;" xml:space="preserve">
<style type="text/css">
	.st0{fill:#FFA400;}
	.st1{fill:#FFFFFF;}
</style>
<g>
	<path class="st0" d="M344.6,277h-59v-30.3c0-24.2-19.7-43.9-43.9-43.9s-43.9,19.7-43.9,43.9V277h-59v-30.3
		c0-56.7,46.1-102.9,102.9-102.9s102.9,46.1,102.9,102.9L344.6,277L344.6,277z"/>
	<path class="st1" d="M368.4,277H115c-10.8,0-19.7,8.9-19.7,19.7V484c0,10.8,8.8,19.7,19.7,19.7h253.3c10.8,0,19.7-8.9,19.7-19.7
		V296.6C388.1,285.8,379.2,277,368.4,277z M254.6,400v25.4c0,7.1-5.7,12.8-12.8,12.8s-12.8-5.7-12.8-12.8V400
		c-7.9-4.5-13.2-12.9-13.2-22.7c0-14.4,11.7-26.1,26.1-26.1s26.1,11.7,26.1,26.1C267.8,387.1,262.5,395.5,254.6,400z"/>
	<path class="st0" d="M89.4,249H28.2c-9.9,0-17.9-8-17.9-17.9s8-17.9,17.9-17.9h61.1c9.9,0,17.9,8,17.9,17.9
		C107.3,241,99.3,249,89.4,249z"/>
	<path class="st0" d="M132.4,152.9c-4,0-8-1.3-11.4-4.1L72.7,109c-7.7-6.3-8.8-17.6-2.5-25.3c6.3-7.7,17.6-8.8,25.3-2.5l48.4,39.8
		c7.7,6.3,8.8,17.6,2.5,25.3C142.8,150.6,137.6,152.9,132.4,152.9z"/>
	<path class="st0" d="M241.7,110.6c-9.9,0-17.9-8-17.9-17.9V31c0-9.9,8-17.9,17.9-17.9c9.9,0,17.9,8,17.9,17.9v61.6
		C259.7,102.6,251.6,110.6,241.7,110.6z"/>
	<g>
		<g>
			<path class="st0" d="M351,152.9c-5.2,0-10.3-2.2-13.9-6.6c-6.3-7.7-5.2-19,2.5-25.3L388,81.3c7.7-6.3,19-5.2,25.3,2.5
				c6.3,7.7,5.2,19-2.5,25.3l-48.4,39.8C359.1,151.5,355,152.9,351,152.9z"/>
		</g>
	</g>
	<path class="st0" d="M455.2,249h-61.7c-9.9,0-17.9-8-17.9-17.9s8-17.9,17.9-17.9h61.7c9.9,0,17.9,8,17.9,17.9
		C473.1,241,465.1,249,455.2,249z"/>
</g>
</svg>
