<?xml version="1.0" encoding="UTF-8"?>
<svg width="81px" height="121px" viewBox="0 0 81 121" version="1.1" xmlns="http://www.w3.org/2000/svg" xmlns:xlink="http://www.w3.org/1999/xlink">
    <!-- Generator: Sketch 49.3 (51167) - http://www.bohemiancoding.com/sketch -->
    <title>logo option</title>
    <desc>Created with Sketch.</desc>
    <defs>
        <polygon id="path-1" points="0.309626012 0.327028295 4.68208092 0.327028295 4.68208092 80.0200671 0.309626012 80.0200671"></polygon>
        <polygon id="path-3" points="0.255594798 0.3388 1.18217861 0.3388 1.18217861 13.6007752 0.255594798 13.6007752"></polygon>
    </defs>
    <g id="Page-1" stroke="none" stroke-width="1" fill="none" fill-rule="evenodd">
        <g id="Clientes" transform="translate(-88.000000, -839.000000)">
            <g id="-footer" transform="translate(-2.000000, 813.000000)">
                <g id="logo-option" transform="translate(90.000000, 26.000000)">
                    <g id="Group-3" transform="translate(76.317919, 6.884806)">
                        <mask id="mask-2" fill="white">
                            <use xlink:href="#path-1"></use>
                        </mask>
                        <g id="Clip-2"></g>
                        <path d="M0.346146243,0.327028295 C0.409822543,0.742086434 0.468348555,1.17074535 0.468348555,1.60972209 L0.468348555,78.4339353 C0.468348555,78.9821872 0.398117341,79.5126174 0.309626012,80.0200671 C3.00744104,78.8907337 4.68222139,76.2864198 4.68222139,73.1352609 L4.68222139,7.56545465 C4.68222139,3.95984225 2.71340636,1.34052054 0.346146243,0.327028295" id="Fill-1" fill="#FFFFFF" mask="url(#mask-2)"></path>
                    </g>
                    <path d="M69.534848,3.33026705 C69.3957902,3.33026705 69.249241,3.33542597 69.1069058,3.3457438 L68.4181717,3.42218953 C68.4336225,3.63323605 68.358241,3.8480345 68.358241,4.06611589 L68.358241,90.0600655 C68.358241,90.2373446 68.5010445,90.4127477 68.515559,90.5876818 L68.9327324,90.6284841 C69.1378075,90.6481818 69.3705069,90.6575616 69.5657497,90.6575616 C72.5613451,90.6575616 74.4449462,88.3716934 74.4449462,85.3185539 L74.4449462,8.49480969 C74.4449462,5.39805388 72.3019578,3.33026705 69.534848,3.33026705" id="Fill-4" fill="#FFFFFF"></path>
                    <path d="M33.8024237,34.3909671 C26.486204,34.4186376 21.3111,39.8153314 21.3111,47.0073275 C21.3111,54.1988547 26.486204,59.5964864 33.8024237,59.624626 C41.1177069,59.5964864 46.2932792,54.1988547 46.2932792,47.0073275 C46.2932792,39.8153314 41.1177069,34.4186376 33.8024237,34.3909671" id="Fill-6" fill="#FFFFFF"></path>
                    <path d="M33.8024237,60.9265484 C25.7033601,60.9077888 19.8938341,54.9562771 19.8938341,47.0073275 C19.8938341,39.1085601 25.7033601,33.1078043 33.8024237,33.0881066 C41.9014873,33.1078043 47.7110133,39.1085601 47.7110133,47.0073275 C47.7110133,54.9562771 41.9014873,60.9077888 33.8024237,60.9265484 M66.0174815,90.1874438 L66.0174815,4.06639729 C66.0174815,1.71862209 64.9480942,0.000234496124 62.8950017,0.000234496124 C62.5892618,0.000234496124 62.3537532,0.0386918605 62.0133659,0.118420543 C61.2441,0.299920543 60.5188457,0.518001938 60.5188457,0.518001938 L54.8497821,1.95546318 C42.8383717,5.37300969 28.1333601,6.74903295 18.6615104,6.74903295 C11.1622214,6.74903295 7.01811156,6.58488566 7.01811156,6.58488566 C3.74112312,6.58488566 0.000140462428,10.2130097 0.000140462428,13.4654709 L0.000140462428,80.3484554 C0.000140462428,83.6009167 3.43959711,87.3453508 6.71564913,87.3453508 C6.71564913,87.3453508 16.9745566,87.4138236 18.1942387,87.4138236 C24.3816087,87.4138236 44.3834584,88.0474322 59.6531289,93.1008236 L61.7778572,93.8563702 C62.1355682,93.984874 62.3579671,94.045374 62.7231694,94.045374 C64.6470364,94.045374 66.4856896,92.3687267 66.0174815,90.1874438" id="Fill-8" fill="#FFFFFF"></path>
                    <path d="M13.2163439,119.893647 C16.1295347,119.893647 18.5885636,117.336233 18.6068237,114.096903 C18.5885636,110.819116 16.1295347,108.31845 13.2163439,108.31845 C10.2099798,108.31845 7.75095087,110.819116 7.75095087,114.096903 C7.75095087,117.336233 10.2099798,119.893647 13.2163439,119.893647 M13.2163439,107.371085 C16.7531879,107.371085 19.5343439,110.383891 19.5530723,114.096903 C19.5343439,117.810853 16.7531879,120.822252 13.2163439,120.822252 C9.64157514,120.822252 6.84262717,117.810853 6.82436705,114.096903 C6.84262717,110.383891 9.64157514,107.371085 13.2163439,107.371085" id="Fill-10" fill="#F2F2F2"></path>
                    <path d="M26.3102046,114.230003 C27.8801064,114.210305 29.1667422,112.921984 29.1667422,111.349922 C29.1667422,109.777391 27.8801064,108.4886 26.3102046,108.4886 L23.0388347,108.4886 L23.0388347,114.230003 L26.3102046,114.230003 Z M22.1117827,108.015387 C22.1117827,107.768697 22.3196671,107.560464 22.5654763,107.560464 L22.6225977,107.560464 L26.3102046,107.560464 C28.3904532,107.560464 30.0745977,109.265251 30.0745977,111.349922 C30.0745977,113.433654 28.3904532,115.12015 26.3102046,115.12015 L23.0388347,115.158139 L23.0388347,120.367705 C23.0388347,120.613926 22.8300139,120.822627 22.5654763,120.822627 C22.3196671,120.822627 22.1117827,120.613926 22.1117827,120.367705 L22.1117827,108.015387 Z" id="Fill-12" fill="#F2F2F2"></path>
                    <path d="M36.3421249,108.488506 L32.3506509,108.488506 C32.1048416,108.488506 31.896489,108.280743 31.896489,108.015293 C31.896489,107.768603 32.1048416,107.560371 32.3506509,107.560371 L41.2400497,107.560371 C41.4867954,107.560371 41.6937434,107.768603 41.6937434,108.015293 C41.6937434,108.280743 41.4867954,108.488506 41.2400497,108.488506 L37.2499803,108.488506 L37.2499803,120.367611 C37.2499803,120.614301 37.0416277,120.822533 36.7962867,120.822533 C36.549541,120.822533 36.3421249,120.614301 36.3421249,120.367611 L36.3421249,108.488506 Z" id="Fill-14" fill="#F2F2F2"></path>
                    <g id="Group-18" transform="translate(44.479769, 107.249147)">
                        <mask id="mask-4" fill="white">
                            <use xlink:href="#path-3"></use>
                        </mask>
                        <g id="Clip-17"></g>
                        <path d="M0.255594798,0.794191473 C0.255594798,0.547032558 0.463479191,0.3388 0.709756647,0.3388 C0.97429422,0.3388 1.18217861,0.547032558 1.18217861,0.794191473 L1.18217861,13.1460403 C1.18217861,13.3927302 0.97429422,13.6009628 0.709756647,13.6009628 C0.463479191,13.6009628 0.255594798,13.3927302 0.255594798,13.1460403 L0.255594798,0.794191473 Z" id="Fill-16" fill="#F2F2F2" mask="url(#mask-4)"></path>
                    </g>
                    <path d="M55.1463451,119.893647 C58.0585994,119.893647 60.5185647,117.336233 60.5363566,114.096903 C60.5185647,110.819116 58.0585994,108.31845 55.1463451,108.31845 C52.1390445,108.31845 49.6800156,110.819116 49.6800156,114.096903 C49.6800156,117.336233 52.1390445,119.893647 55.1463451,119.893647 M55.1463451,107.371085 C58.6836572,107.371085 61.4629405,110.383891 61.482137,114.096903 C61.4629405,117.810853 58.6836572,120.822252 55.1463451,120.822252 C51.5715763,120.822252 48.7721601,117.810853 48.7529636,114.096903 C48.7721601,110.383891 51.5715763,107.371085 55.1463451,107.371085" id="Fill-19" fill="#F2F2F2"></path>
                    <path d="M65.1607075,109.511707 L65.1607075,120.36747 C65.1607075,120.61416 64.9528231,120.822393 64.7065457,120.822393 C64.4607364,120.822393 64.252852,120.61416 64.252852,120.36747 L64.252852,108.204625 C64.1957306,108.015621 64.252852,107.825679 64.4223434,107.692955 C64.630696,107.560699 64.9336266,107.598218 65.0656613,107.80692 L73.0855977,118.946424 L73.0855977,108.147877 C73.0855977,107.901187 73.2939503,107.692955 73.5392913,107.692955 C73.8038289,107.692955 74.0121815,107.901187 74.0121815,108.147877 L74.0121815,120.36747 C74.0121815,120.61416 73.8038289,120.822393 73.5392913,120.822393 C73.3880601,120.822393 73.2747538,120.765645 73.1801757,120.65121 C73.1614474,120.63292 73.1235225,120.61416 73.1038578,120.576172 L65.1607075,109.511707 Z" id="Fill-21" fill="#F2F2F2"></path>
                </g>
            </g>
        </g>
    </g>
</svg>