<?xml version="1.0" encoding="utf-8"?>
<!-- Generator: Adobe Illustrator 16.0.0, SVG Export Plug-In . SVG Version: 6.00 Build 0)  -->
<!DOCTYPE svg PUBLIC "-//W3C//DTD SVG 1.1 Tiny//EN" "http://www.w3.org/Graphics/SVG/1.1/DTD/svg11-tiny.dtd">
<svg version="1.1" baseProfile="tiny" id="Layer_1" xmlns="http://www.w3.org/2000/svg" xmlns:xlink="http://www.w3.org/1999/xlink"
	 x="0px" y="0px" width="240px" height="240px" viewBox="0 0 240 240" xml:space="preserve">
<g>
	<polygon fill="#FFFFFF" points="129.104,165.14 129.104,158.53 89.442,158.53 81.179,158.53 81.179,216.368 89.442,216.368 
		89.442,191.002 124.145,191.002 124.145,184.394 89.442,184.394 89.442,165.14 	"/>
	<path fill="#FFFFFF" d="M40.033,168.445h-8.428v-24.373h8.428c9.253,0,14.954,2.726,14.954,12.312
		C54.987,165.965,49.286,168.445,40.033,168.445 M49.369,138.122H31.604V123.83h17.765c6.775,0,9.667,2.063,9.667,7.021
		C59.036,135.81,56.145,138.122,49.369,138.122 M67.051,130.85c0-8.84-6.032-13.632-17.517-13.632h-17.93h-8.263v57.839h3.305h13.47
		c15.369,0,23.136-5.701,23.136-18.674c0-6.113-2.232-10.495-6.116-13.469C63.084,141.098,67.051,137.131,67.051,130.85"/>
	<path fill="#FFFFFF" d="M150,150.001h81.599L150,231.598V150.001z M6.599,96.598H90v53.403h53.396v82.801H6.599V96.598z
		 M96.598,96.598h46.799v46.801H96.598V96.598z M150,96l83.397-83.4v130.799H150V96z M90,9V90H8.397L90,9z M96.598,7.203h133.199
		L146.4,90H96.598V7.203z M90,0L0,90V240h150l90-89.999V0H90z"/>
</g>
</svg>
