<?xml version="1.0" encoding="utf-8"?>
<!-- Generator: Adobe Illustrator 22.0.0, SVG Export Plug-In . SVG Version: 6.00 Build 0)  -->
<svg version="1.1" id="Layer_1" xmlns="http://www.w3.org/2000/svg" xmlns:xlink="http://www.w3.org/1999/xlink" x="0px" y="0px"
	 viewBox="0 0 175.5 52" style="enable-background:new 0 0 175.5 52;" xml:space="preserve">
<style type="text/css">
	.st0{fill:#FFFFFF;}
	.st1{fill:#F16B46;}
</style>
<g>
	<g>
		<path class="st0" d="M163.1,8.3c-0.4,0-0.8,0-1,0c-2.5,0-4.5,0.8-6.2,2.1c-1.8-1.4-4.8-2.1-9.1-2.1c-4.6,0-7.7,1-9.9,2.4
			c-0.2,0.2-0.3,0.4-0.1,0.7l2.1,3.4c0.2,0.3,0.5,0.3,0.8,0.1c1.3-0.9,3.3-1.7,6.4-1.7c4.7,0,6.2,1.3,6.2,4.1v1.2
			c0,0.2-0.1,0.3-0.3,0.3h-5.7c-6.9,0-11.2,2.5-11.2,7.9c0,5.2,4.3,7.6,9.4,7.6c0.1,0,3.6,0,3.6,0c7.5,0,9.9-4.3,9.9-8.3
			c0-2.4,0-6.4,0-6.4c0-3.2,1.2-5.9,4.5-6c3.3,0,5,2,5,5.2V33c0,0.3,0.2,0.5,0.6,0.5h5.1c0.3,0,0.6-0.2,0.6-0.5V17.5
			C173.6,12.2,168.8,8.3,163.1,8.3z M152.3,25.3c0,2.8-2.2,4.2-6.2,4.2c-3.1,0-4.8-1-4.8-3.1c0-2.3,1.9-3.3,6-3.3h4.6
			c0.2,0,0.3,0.1,0.3,0.3V25.3z"/>
		<path class="st0" d="M98,13.4c2.3,0,3.8,0.8,5.2,2.2c0.2,0.3,0.5,0.3,0.8,0.1l3.7-2.8c0.3-0.2,0.2-0.5,0.1-0.7
			c-2.2-2.4-5.5-3.9-9.7-3.9c-3.8,0-6.9,1.1-9.1,3.1c-2.2-2.1-5.3-3.2-9.1-3.2c-5.7,0-10,2.5-11.6,6.8c-0.6,1.7-0.9,3.4-0.9,6.1
			s0.3,4.4,0.9,6.1c1.6,4.3,5.9,6.8,11.6,6.8c3.7,0,6.9-1.1,9.1-3.1c2.2,2.1,5.4,3.2,9.2,3.2c4.2,0,7.5-1.5,9.7-3.8
			c0.2-0.3,0.2-0.5-0.1-0.7l-3.7-2.8c-0.3-0.2-0.6-0.2-0.8,0.1c-1.4,1.4-2.8,2.2-5.2,2.2c-2.5,0-4.4-1.1-5.2-3.2
			c-0.5-1.2-0.6-2.7-0.6-4.6c0-1.9,0.1-3.3,0.6-4.6C93.6,14.5,95.5,13.4,98,13.4z M85,25.8c-0.8,2.1-2.6,3.2-5.2,3.2
			c-2.6,0-4.5-1.2-5.3-3.2c-0.5-1.3-0.6-2.5-0.6-4.6c0-2.1,0.1-3.2,0.6-4.6c0.8-2.1,2.7-3.2,5.3-3.2c2.6,0,4.4,1.2,5.2,3.2
			c0.5,1.3,0.6,2.5,0.6,4.6C85.6,23.3,85.4,24.5,85,25.8z"/>
		<path class="st0" d="M120.7,8.3c-5.4,0-9.6,2.5-11.2,6.8c-0.6,1.6-0.9,3.6-0.9,6.1c0,2.6,0.4,4.5,1,6.1c1.5,4.3,5.6,6.9,11.4,6.9
			c5,0,8.9-1.7,11.2-4.2c0.2-0.3,0.2-0.5-0.1-0.7l-3.3-2.7c-0.3-0.2-0.6-0.2-0.8,0.1c-1.4,1.3-3.3,2.4-6.4,2.4
			c-3.1,0-5.2-1.3-6.1-3.8c-0.2-0.6-0.4-1.2-0.4-1.9c0-0.2,0.1-0.3,0.3-0.3h16.8c0.4,0,0.6-0.2,0.6-0.5c0-4-0.3-5.7-0.9-7.5
			C130.3,10.9,126.3,8.3,120.7,8.3z M126,18.8h-10.7c-0.2,0-0.3-0.1-0.3-0.3c0-0.9,0.1-1.5,0.3-2.1c0.7-2,2.8-3.2,5.4-3.2
			c2.5,0,4.6,1.2,5.3,3.2c0.2,0.6,0.3,1.2,0.3,2.1C126.4,18.7,126.3,18.8,126,18.8z"/>
	</g>
	<path class="st1" d="M47.7,4.1c-0.6-0.4-1.6-0.4-2.1,0.1L42,7.5c-0.6,0.5-0.5,1.3,0.1,1.7c0,0,5.5,4,5.5,12.7
		c0,8.2-5.8,12.9-5.8,12.9c-0.6,0.5-0.6,1.3,0,1.8l3.5,3.2c0.6,0.5,1.5,0.6,2.1,0.2c0,0,8.3-5.6,8.3-18.1
		C55.7,9.6,47.7,4.1,47.7,4.1"/>
	<path class="st0" d="M27,13.7c-1.1-2.3-3.4-4.1-6.9-4.1c-3.5,0-5.8,1.7-6.9,4.1c-0.6,1.4-0.9,2.5-1,4.2H28
		C27.9,16.2,27.7,15.1,27,13.7 M13.4,24.6c0,0-1-0.1-1,0.7c0,4.7,3.5,8,9,8c4.1,0,5.8-1,8.3-2.8c0.6-0.4,1.2-0.8,1.7-0.3
		c0.3,0.3,4.7,4.3,4.7,4.3c0.5,0.5,0.4,1.1-0.2,1.6c-0.6,0.5-7,5.5-14.5,5.5c-9.7,0-19.1-4.2-19.1-20.2c0-12.8,7.3-20.1,18-20.1
		c11.5,0,17.9,8,17.9,18.8V23c0,1.1-0.9,1.6-1.6,1.6H13.4z"/>
	<g>
		<path class="st0" d="M94.3,49C94.2,49,94.2,49,94.3,49l-0.1-0.4h0c-0.2,0.3-0.6,0.5-1.2,0.5c-0.8,0-1.5-0.4-1.5-1.4
			c0-1,0.7-1.4,1.8-1.4h0.8c0,0,0.1,0,0.1-0.1v-0.2c0-0.4-0.2-0.6-0.9-0.6c-0.4,0-0.8,0.1-1,0.3c0,0-0.1,0-0.1,0l-0.4-0.7
			c0-0.1,0-0.1,0-0.1c0.4-0.3,0.9-0.4,1.6-0.4c1.4,0,2,0.5,2,1.6v2.8c0,0.1,0,0.1-0.1,0.1H94.3z M94.2,47.6v-0.3c0,0,0-0.1-0.1-0.1
			h-0.6c-0.5,0-0.8,0.2-0.8,0.5c0,0.3,0.2,0.5,0.6,0.5C93.9,48.2,94.2,48,94.2,47.6z"/>
		<path class="st0" d="M103.5,49C103.5,49,103.4,49,103.5,49l-0.1-0.4h0c-0.2,0.3-0.6,0.5-1.2,0.5c-0.7,0-1.3-0.4-1.5-1.1
			c-0.1-0.3-0.2-0.7-0.2-1.2c0-0.6,0-0.9,0.2-1.2c0.2-0.7,0.8-1.1,1.5-1.1c0.6,0,0.9,0.2,1.2,0.5h0v-2.1c0-0.1,0-0.1,0.1-0.1h1.1
			c0.1,0,0.1,0,0.1,0.1v6c0,0.1,0,0.1-0.1,0.1H103.5z M103.3,47.6c0.1-0.2,0.1-0.4,0.1-0.8c0-0.4,0-0.6-0.1-0.8
			c-0.1-0.3-0.3-0.5-0.7-0.5c-0.3,0-0.6,0.2-0.7,0.5c-0.1,0.2-0.1,0.4-0.1,0.8c0,0.4,0,0.6,0.1,0.8c0.1,0.3,0.3,0.5,0.7,0.5
			C103,48.1,103.2,47.9,103.3,47.6z"/>
		<path class="st0" d="M107,43.9C107,43.9,106.9,43.9,107,43.9l-0.1-1c0-0.1,0-0.1,0.1-0.1h1.1c0.1,0,0.1,0,0.1,0.1v0.9
			c0,0.1,0,0.1-0.1,0.1H107z M107,49C107,49,106.9,49,107,49l-0.1-4.3c0-0.1,0-0.1,0.1-0.1h1.1c0.1,0,0.1,0,0.1,0.1v4.2
			c0,0.1,0,0.1-0.1,0.1H107z"/>
		<path class="st0" d="M110.4,50.1c0,0,0-0.1,0-0.1l0.6-0.7c0,0,0.1,0,0.1,0c0.3,0.2,0.6,0.4,0.9,0.4c0.6,0,0.9-0.3,0.9-1v-0.4h0
			c-0.2,0.3-0.6,0.5-1.1,0.5c-0.7,0-1.2-0.4-1.5-1.1c-0.1-0.3-0.1-0.6-0.1-1.1c0-0.5,0-0.8,0.1-1.1c0.2-0.7,0.7-1.1,1.5-1.1
			c0.6,0,0.9,0.2,1.1,0.5h0v-0.3c0-0.1,0-0.1,0.1-0.1h1.1c0.1,0,0.1,0,0.1,0.1v3.8c0,1.5-0.7,2.2-2.2,2.2
			C111.4,50.8,110.7,50.5,110.4,50.1z M112.9,47.3c0.1-0.2,0.1-0.3,0.1-0.6c0-0.3,0-0.5-0.1-0.6c-0.1-0.3-0.3-0.5-0.7-0.5
			c-0.3,0-0.5,0.2-0.7,0.5c0,0.2-0.1,0.3-0.1,0.6c0,0.3,0,0.5,0.1,0.6c0.1,0.3,0.3,0.5,0.7,0.5C112.6,47.8,112.8,47.6,112.9,47.3z"
			/>
		<path class="st0" d="M116.6,43.9C116.6,43.9,116.5,43.9,116.6,43.9l-0.1-1c0-0.1,0-0.1,0.1-0.1h1.1c0.1,0,0.1,0,0.1,0.1v0.9
			c0,0.1,0,0.1-0.1,0.1H116.6z M116.6,49C116.6,49,116.5,49,116.6,49l-0.1-4.3c0-0.1,0-0.1,0.1-0.1h1.1c0.1,0,0.1,0,0.1,0.1v4.2
			c0,0.1,0,0.1-0.1,0.1H116.6z"/>
		<path class="st0" d="M121.5,49.1c-1,0-1.4-0.5-1.4-1.5v-2c0,0,0-0.1-0.1-0.1h-0.3c-0.1,0-0.1,0-0.1-0.1v-0.8c0-0.1,0-0.1,0.1-0.1
			h0.3c0,0,0.1,0,0.1-0.1v-1.2c0-0.1,0-0.1,0.1-0.1h1.1c0.1,0,0.1,0,0.1,0.1v1.2c0,0,0,0.1,0.1,0.1h0.6c0.1,0,0.1,0,0.1,0.1v0.8
			c0,0.1,0,0.1-0.1,0.1h-0.6c0,0-0.1,0-0.1,0.1v2c0,0.3,0.1,0.4,0.4,0.4h0.2c0.1,0,0.1,0,0.1,0.1V49c0,0.1,0,0.1-0.1,0.1H121.5z"/>
		<path class="st0" d="M126.7,49C126.7,49,126.7,49,126.7,49l-0.1-0.4h0c-0.2,0.3-0.6,0.5-1.2,0.5c-0.8,0-1.5-0.4-1.5-1.4
			c0-1,0.7-1.4,1.8-1.4h0.8c0,0,0.1,0,0.1-0.1v-0.2c0-0.4-0.2-0.6-0.9-0.6c-0.4,0-0.8,0.1-1,0.3c0,0-0.1,0-0.1,0l-0.4-0.7
			c0-0.1,0-0.1,0-0.1c0.4-0.3,0.9-0.4,1.6-0.4c1.4,0,2,0.5,2,1.6v2.8c0,0.1,0,0.1-0.1,0.1H126.7z M126.6,47.6v-0.3
			c0,0,0-0.1-0.1-0.1H126c-0.5,0-0.8,0.2-0.8,0.5c0,0.3,0.2,0.5,0.6,0.5C126.4,48.2,126.6,48,126.6,47.6z"/>
		<path class="st0" d="M131.4,49.1c-1,0-1.4-0.4-1.4-1.4v-4.8c0-0.1,0-0.1,0.1-0.1h1.1c0.1,0,0.1,0,0.1,0.1v4.7
			c0,0.3,0.1,0.4,0.4,0.4h0.2c0.1,0,0.1,0,0.1,0.1V49c0,0.1,0,0.1-0.1,0.1H131.4z"/>
		<path class="st0" d="M136.5,50.7C136.4,50.7,136.4,50.6,136.5,50.7l-0.1-1c0-0.1,0-0.1,0.1-0.1h0.2c0.4,0,0.5-0.1,0.5-0.5v-4.4
			c0-0.1,0-0.1,0.1-0.1h1.1c0.1,0,0.1,0,0.1,0.1v4.4c0,1.1-0.6,1.6-1.7,1.6H136.5z M137.3,43.9C137.2,43.9,137.2,43.9,137.3,43.9
			l-0.1-1c0-0.1,0-0.1,0.1-0.1h1.1c0.1,0,0.1,0,0.1,0.1v0.9c0,0.1,0,0.1-0.1,0.1H137.3z"/>
		<path class="st0" d="M140.6,47.9c-0.1-0.3-0.1-0.6-0.1-1.1c0-0.4,0-0.7,0.1-1.1c0.3-0.8,1-1.2,1.9-1.2c0.9,0,1.7,0.4,1.9,1.2
			c0.1,0.3,0.1,0.6,0.1,1.1c0,0.4,0,0.7-0.1,1.1c-0.3,0.8-1,1.2-1.9,1.2C141.6,49.1,140.9,48.7,140.6,47.9z M143.2,47.6
			c0.1-0.2,0.1-0.4,0.1-0.8c0-0.4,0-0.6-0.1-0.8c-0.1-0.3-0.3-0.5-0.7-0.5c-0.3,0-0.6,0.2-0.7,0.5c-0.1,0.2-0.1,0.4-0.1,0.8
			c0,0.4,0,0.6,0.1,0.8c0.1,0.3,0.3,0.5,0.7,0.5C142.9,48.1,143.1,47.9,143.2,47.6z"/>
		<path class="st0" d="M149.3,49C149.2,49,149.2,49,149.3,49l-0.1-0.4h0c-0.2,0.3-0.6,0.5-1.1,0.5c-1,0-1.5-0.7-1.5-1.6v-2.8
			c0-0.1,0-0.1,0.1-0.1h1.1c0.1,0,0.1,0,0.1,0.1v2.5c0,0.5,0.2,0.8,0.7,0.8c0.4,0,0.7-0.3,0.7-0.8v-2.5c0-0.1,0-0.1,0.1-0.1h1.1
			c0.1,0,0.1,0,0.1,0.1v4.2c0,0.1,0,0.1-0.1,0.1H149.3z"/>
		<path class="st0" d="M152.8,49C152.8,49,152.7,49,152.8,49l-0.1-4.3c0-0.1,0-0.1,0.1-0.1h1.1c0.1,0,0.1,0,0.1,0.1v0.4h0
			c0.2-0.4,0.6-0.6,1.1-0.6c0.3,0,0.6,0.1,0.8,0.3c0,0,0.1,0.1,0,0.1l-0.5,0.9c0,0-0.1,0-0.1,0c-0.2-0.1-0.4-0.2-0.6-0.2
			c-0.5,0-0.7,0.4-0.7,1v2.3c0,0.1,0,0.1-0.1,0.1H152.8z"/>
		<path class="st0" d="M160.5,49C160.4,49,160.4,49,160.5,49l-0.1-2.6c0-0.5-0.2-0.8-0.7-0.8c-0.4,0-0.7,0.3-0.7,0.8v2.5
			c0,0.1,0,0.1-0.1,0.1h-1.1c-0.1,0-0.1,0-0.1-0.1v-4.2c0-0.1,0-0.1,0.1-0.1h1.1c0.1,0,0.1,0,0.1,0.1V45h0c0.2-0.3,0.6-0.5,1.1-0.5
			c1,0,1.5,0.7,1.5,1.6v2.8c0,0.1,0,0.1-0.1,0.1H160.5z"/>
		<path class="st0" d="M163.8,47.9c-0.1-0.3-0.2-0.6-0.2-1c0-0.5,0.1-0.8,0.1-1.1c0.3-0.8,1-1.2,1.9-1.2c1,0,1.7,0.5,1.9,1.2
			c0.1,0.3,0.1,0.6,0.1,1.4c0,0.1,0,0.1-0.1,0.1H165c0,0-0.1,0-0.1,0.1c0,0.1,0,0.2,0.1,0.2c0.1,0.4,0.5,0.6,0.9,0.6
			c0.4,0,0.8-0.2,1-0.4c0,0,0.1,0,0.1,0l0.6,0.6c0,0,0,0.1,0,0.1c-0.4,0.4-1.1,0.7-1.9,0.7C164.7,49.1,164,48.7,163.8,47.9z
			 M166.4,46.4C166.5,46.4,166.5,46.3,166.4,46.4c0.1-0.2,0-0.3,0-0.4c-0.1-0.3-0.4-0.5-0.7-0.5c-0.4,0-0.6,0.2-0.7,0.5
			c0,0.1,0,0.2,0,0.3c0,0,0,0.1,0.1,0.1H166.4z"/>
		<path class="st0" d="M169.9,50.7C169.9,50.7,169.8,50.6,169.9,50.7l-0.1-1c0-0.1,0-0.1,0.1-0.1h0.2c0.3,0,0.5-0.1,0.6-0.5l0.1-0.3
			l-1.6-4.1c0-0.1,0-0.1,0.1-0.1h1.2c0.1,0,0.1,0,0.1,0.1l0.9,2.6h0l0.8-2.6c0-0.1,0.1-0.1,0.1-0.1h1.1c0.1,0,0.1,0,0.1,0.1
			l-1.8,4.7c-0.4,1-0.8,1.3-1.6,1.3H169.9z"/>
	</g>
</g>
</svg>
