<svg id="Capa_1" data-name="Capa 1" xmlns="http://www.w3.org/2000/svg" viewBox="0 0 1046.62 701.86"><defs><style>.cls-1{fill:#fff;stroke:#e5e5e5;stroke-miterlimit:10;}</style></defs><title>Ocean avatar -wh</title><path class="cls-1" d="M757.7,176.23c52.12,0,84.69,17.32,115.95,48.49,5.21,5.78,11.73,6.93,18.24,2.31L974,163.52c6.51-4.61,5.21-11.54,1.3-16.16-49.5-53.11-123.76-86.6-217.57-86.6-84.68,0-155.87,24.4-204.62,70.36-48.37-46.31-119.81-72-204.85-72C220.56,59.15,124.15,115.73,89,212.72,74.65,252,68.13,288.93,68.13,350.13S74.65,448.27,89,487.53c35.17,97,131.58,153.57,259.25,153.57,84,0,154.82-25.06,203.16-70.36,48.79,47,120.65,72,206.31,72,93.81,0,168.07-33.49,217.57-85.45,3.91-5.77,5.21-11.54-1.3-16.16l-82.08-63.51c-6.51-4.62-13-4.62-18.24,1.16-31.26,31.17-63.83,48.49-115.95,48.49-56,0-99-24.25-117.25-71.59-10.42-27.71-13-61.19-13-103.92s2.6-75.05,13-102.76C658.69,200.47,701.68,176.23,757.7,176.23ZM465.48,452.89c-18.24,46.19-58.62,72.74-117.25,72.74s-100.31-26.55-118.55-72.74c-10.42-28.87-13-55.42-13-102.76s2.61-72.75,13-102.77c18.24-46.19,59.93-72.74,118.55-72.74s99,26.55,117.25,72.74c10.43,30,13,55.42,13,102.77S475.91,424,465.48,452.89Z"/></svg>