<svg id="Capa_1" data-name="Capa 1" xmlns="http://www.w3.org/2000/svg" viewBox="0 0 1046.62 749.85"><defs><style>.cls-1{fill:#4280eb;}</style></defs><title>Ocean avatar primario</title><path class="cls-1" d="M761,204.25c52.11,0,84.68,17.32,115.95,48.5,5.21,5.77,11.72,6.93,18.24,2.31l82.07-63.51c6.52-4.62,5.22-11.55,1.31-16.16C929,122.27,854.76,88.79,761,88.79c-84.68,0-155.87,24.4-204.62,70.36-48.38-46.32-119.81-72-204.85-72-127.67,0-224.08,56.58-259.26,153.57C77.9,280,71.39,317,71.39,378.15s6.51,98.15,20.84,137.4c35.18,97,131.59,153.57,259.26,153.57,84.05,0,154.81-25,203.15-70.35,48.8,47,120.66,72,206.32,72,93.8,0,168.06-33.48,217.57-85.44,3.91-5.78,5.21-11.55-1.31-16.17l-82.07-63.5c-6.52-4.62-13-4.62-18.24,1.15C845.64,538,813.07,555.27,761,555.27c-56,0-99-24.25-117.25-71.59-10.42-27.71-13-61.2-13-103.92s2.61-75.05,13-102.77C662,228.5,704.94,204.25,761,204.25ZM468.74,480.91c-18.24,46.19-58.62,72.75-117.25,72.75S251.18,527.1,232.94,480.91c-10.43-28.86-13-55.42-13-102.76s2.6-72.74,13-102.76c18.24-46.19,59.93-72.75,118.55-72.75s99,26.56,117.25,72.75c10.42,30,13,55.42,13,102.76S479.16,452.05,468.74,480.91Z"/></svg>