<?xml version="1.0" encoding="utf-8"?>
<!-- Generator: Adobe Illustrator 22.1.0, SVG Export Plug-In . SVG Version: 6.00 Build 0)  -->
<svg version="1.1" id="Capa_1" xmlns="http://www.w3.org/2000/svg" xmlns:xlink="http://www.w3.org/1999/xlink" x="0px" y="0px"
	 viewBox="0 0 2267.7 765.3" style="enable-background:new 0 0 2267.7 765.3;" xml:space="preserve">
<style type="text/css">
	.st0{font-family:'DINNextLTPro-Medium';}
	.st1{font-size:107.37px;}
	.st2{letter-spacing:10.6;}
	.st3{letter-spacing:8.8;}
</style>
<title>Ocean logo-svg-bk</title>
<path d="M2095,160.1h-12.7c-31.7,0-57,9.6-78.9,26.2c-23.4-17.9-60.3-26.2-114.6-26.2c-58,0-96.8,12.4-125.5,30.6
	c-2.9,2-3.7,5.2-1.5,8.4L1789,242c2.2,3.2,6.6,3.9,10.3,1.3c16.9-11.7,41.1-21.5,80.7-21.5c59.4,0,78.5,16.3,78.5,52v15
	c0,2.6-1.5,3.9-4.4,3.9h-71.9c-87.3,0-141.6,31.2-141.6,99.5c0,65.7,54.3,95.6,118.9,95.6h45c95.2,0,125.5-54.3,125.5-104.4
	c0-30.8,0-80.6,0-80.6c0-40.2,15.2-75,56.6-75.2c41.5,0.2,62.9,25.6,62.9,65.7v179c0,3.9,2.8,6.5,7,6.5h64c4.2,0,7-2.6,7-6.5v-196
	C2227.5,209.5,2166.7,160.1,2095,160.1z M1958.5,375.3c0,35.8-27.9,53.3-78.5,53.3c-39.6,0-60.9-13-60.9-39
	c0-29.3,23.5-42.3,76.3-42.3h58.7c2.9,0,4.4,1.3,4.4,3.9V375.3z"/>
<path d="M1272,225.5c29.3,0,47.7,9.8,65.3,27.3c2.9,3.2,6.6,3.9,10.3,1.3l46.2-35.8c3.7-2.6,2.9-6.5,0.7-9.1
	c-27.9-29.9-69.7-48.8-122.5-48.8c-47.7,0-87.8,13.7-115.2,39.6c-27.2-26.1-67.5-40.5-115.4-40.5c-71.9,0-126.2,31.9-146,86.5
	c-8.1,22.1-11.7,42.9-11.7,77.4s3.7,55.3,11.7,77.4c19.8,54.6,74.1,86.5,146,86.5c47.3,0,87.2-14.1,114.4-39.6
	c27.5,26.5,68,40.5,116.2,40.5c52.8,0,94.6-18.9,122.5-48.1c2.2-3.2,2.9-6.5-0.7-9.1l-46.2-35.8c-3.7-2.6-7.3-2.6-10.3,0.6
	c-17.6,17.5-36,27.3-65.3,27.3c-31.6,0-55.8-13.7-66-40.3c-5.9-15.6-7.3-34.5-7.3-58.5s1.5-42.3,7.3-57.9
	C1216.3,239.2,1240.5,225.5,1272,225.5z M1107.5,381.3c-10.3,26-33,41-66,41s-56.5-15-66.8-41c-5.9-16.3-7.3-31.2-7.3-57.9
	s1.5-41,7.3-57.9c10.3-26,33.8-41,66.8-41s55.8,15,66,41c5.9,16.9,7.3,31.2,7.3,57.9S1113.3,365.1,1107.5,381.3z"/>
<path d="M1558.6,160.5c-68.7,0-121.6,31.9-140.9,86.5c-7.2,20.2-11.4,44.9-11.4,77.4s5,56.6,12.2,76.7
	c19.3,54.6,70.8,87.1,143.8,87.1c63.7,0,112.3-22.1,141.7-53.3c2.9-3.2,2.9-6.5-0.7-9.1l-42.2-33.8c-3.6-2.6-7.2-2-10.7,1.3
	c-17.2,16.9-42.2,29.9-80.8,29.9s-65.8-16.9-77.3-47.5c-3.2-7.6-4.9-15.8-5-24.1c0-2.6,1.4-3.9,4.3-3.9h212.5c5,0,7.9-2.6,7.9-6.5
	c0-50.7-3.6-72.2-11.4-94.3C1680.9,193.7,1629.4,160.5,1558.6,160.5z M1626.6,293.2h-135.2c-2.9,0-4.3-1.3-4.3-3.9
	c0-11.1,1.4-18.9,4.3-26.7c9.3-25.4,35-40.3,68-40.3c32.2,0,58,15,67.2,40.3c2.9,7.8,4.3,15.6,4.3,26.7
	C1630.8,291.9,1629.4,293.2,1626.6,293.2L1626.6,293.2z"/>
<path d="M636,107c-7.9-5.4-20-4.5-27.1,1.9L564,150c-7,6.4-6.5,16.3,1.2,22c0,0,69.4,50.8,69.4,160.2c0,103.7-73.2,163.4-73.2,163.4
	c-6.4,4.9-7.6,14.1-2.7,20.5c0.6,0.8,1.3,1.5,2.1,2.2l44.6,40.5c7,6.5,19.3,7.3,27.2,1.9c0,0,104.8-71.2,104.8-228.2
	C737.3,176.7,636,107,636,107"/>
<path d="M375,228.7c-14-29.6-42.9-51.5-86.9-51.5s-73,22-86.9,51.5c-8,18.1-11,31.5-12,53.4h197.9
	C386.1,260.2,383.1,246.8,375,228.7 M202.5,367c0,0-13-1.2-13,9.3c0,59.3,44.2,101.5,113.6,101.5c51.5,0,73.5-12.4,104.6-35.7
	c7.3-5.5,15-10.5,20.9-4.1c4.1,4.4,58.8,54.9,58.8,54.9c6.9,6.4,5,14.1-2.4,20.2s-89,69.7-183,69.7c-122.9,0-240.8-53.4-240.8-254.8
	c0-162.2,91.9-253.8,226.9-253.8C433,74.1,515,175.2,515,311.7v34.5c0,14.1-11.4,20.8-20.8,20.8H202.5z"/>
<text transform="matrix(1.13 0 0 1 1133.8594 671.4404)" class="st0 st1 st2">a digital journ</text>
<text transform="matrix(1.13 0 0 1 2046.6289 671.4404)" class="st0 st1 st3">e</text>
<text transform="matrix(1.13 0 0 1 2121.2422 671.4404)" class="st0 st1 st2">y</text>
</svg>
