<svg id="Capa_1" data-name="Capa 1" xmlns="http://www.w3.org/2000/svg" viewBox="0 0 2267.72 765.35"><defs><style>.cls-1,.cls-2{fill:#231f20;}.cls-2{font-size:107.37px;font-family:DINNextLTPro-Medium, DIN Next LT Pro;letter-spacing:0.1em;}.cls-3{letter-spacing:0.09em;}.cls-4{letter-spacing:0.1em;}</style></defs><title>Ocean logo-svg-bk</title><path class="cls-1" d="M2095,160.07h-12.67c-31.66,0-57,9.64-78.93,26.17-23.36-17.94-60.34-26.17-114.6-26.17-58,0-96.84,12.35-125.46,30.56-2.93,2-3.66,5.2-1.46,8.45L1789,242c2.2,3.25,6.6,3.9,10.27,1.3,16.88-11.71,41.09-21.46,80.71-21.46,59.43,0,78.5,16.26,78.5,52v15q0,3.9-4.4,3.9h-71.9c-87.31,0-141.6,31.21-141.6,99.49,0,65.67,54.29,95.58,118.86,95.58h45c95.17,0,125.5-54.33,125.5-104.39,0-30.77,0-80.57,0-80.57,0-40.18,15.15-75,56.63-75.2,41.49.18,62.93,25.56,62.93,65.75V472.42c0,3.9,2.78,6.5,7,6.5h64c4.18,0,7-2.6,7-6.5v-196C2227.51,209.48,2166.67,160.07,2095,160.07ZM1958.5,375.3c0,35.76-27.88,53.32-78.5,53.32-39.62,0-60.9-13-60.9-39,0-29.26,23.48-42.26,76.3-42.26h58.7q4.39,0,4.4,3.9Z"/><path class="cls-1" d="M1272,225.53c29.34,0,47.69,9.76,65.29,27.31,2.94,3.25,6.61,3.9,10.28,1.3l46.22-35.76c3.67-2.6,2.93-6.5.73-9.11-27.88-29.91-69.7-48.76-122.52-48.76-47.69,0-87.78,13.74-115.24,39.62-27.24-26.08-67.47-40.53-115.36-40.53-71.9,0-126.19,31.86-146,86.48-8.07,22.11-11.74,42.92-11.74,77.38s3.67,55.27,11.74,77.38c19.81,54.62,74.1,86.49,146,86.49,47.33,0,87.18-14.11,114.41-39.62,27.48,26.46,68,40.52,116.19,40.52,52.82,0,94.64-18.85,122.52-48.12,2.2-3.25,2.94-6.5-.73-9.1l-46.22-35.76c-3.67-2.6-7.34-2.6-10.28.65-17.6,17.55-36,27.31-65.29,27.31-31.55,0-55.76-13.66-66-40.32-5.87-15.6-7.34-34.46-7.34-58.52s1.47-42.27,7.34-57.87C1216.27,239.19,1240.48,225.53,1272,225.53ZM1107.46,381.34c-10.27,26-33,41-66,41s-56.49-14.95-66.76-41c-5.87-16.26-7.34-31.22-7.34-57.88s1.47-41,7.34-57.87c10.27-26,33.75-41,66.76-41s55.76,15,66,41c5.87,16.91,7.34,31.21,7.34,57.87S1113.33,365.08,1107.46,381.34Z"/><path class="cls-1" d="M1558.55,160.51c-68.68,0-121.62,31.86-140.94,86.48-7.15,20.16-11.45,44.87-11.45,77.38s5,56.57,12.17,76.73c19.31,54.62,70.82,87.13,143.79,87.13,63.67,0,112.32-22.11,141.65-53.32,2.87-3.25,2.87-6.5-.71-9.1L1660.85,392c-3.58-2.61-7.15-2-10.73,1.3-17.17,16.9-42.21,29.91-80.84,29.91s-65.82-16.91-77.27-47.47a63.46,63.46,0,0,1-5-24.06c0-2.6,1.44-3.9,4.3-3.9h212.47c5,0,7.87-2.6,7.87-6.5,0-50.72-3.57-72.18-11.44-94.29C1680.88,193.67,1629.37,160.51,1558.55,160.51Zm68,132.65H1491.3c-2.86,0-4.3-1.3-4.3-3.9,0-11.06,1.44-18.86,4.3-26.66,9.3-25.36,35-40.32,68-40.32,32.19,0,58,15,67.25,40.32,2.86,7.8,4.29,15.6,4.29,26.66Q1630.8,293.16,1626.51,293.16Z"/><path class="cls-1" d="M636,107c-7.86-5.43-20.05-4.54-27.11,1.87L564,150c-7,6.44-6.49,16.32,1.2,22,0,0,69.38,50.82,69.38,160.21,0,103.7-73.15,163.41-73.15,163.41a14.63,14.63,0,0,0-.6,22.69l44.58,40.54c7,6.46,19.27,7.28,27.15,1.94,0,0,104.78-71.22,104.78-228.19C737.31,176.67,636,107,636,107"/><path class="cls-1" d="M375,228.68c-14-29.55-42.89-51.54-86.89-51.54s-73,22-86.95,51.54c-8,18.15-11,31.51-12,53.43H387.1c-1.05-21.92-4-35.28-12.06-53.43M202.52,367.05s-13-1.22-13,9.26c0,59.26,44.19,101.48,113.62,101.48,51.49,0,73.53-12.35,104.65-35.71,7.28-5.46,15-10.48,20.93-4.11,4.11,4.42,58.78,54.86,58.78,54.86,6.85,6.39,4.95,14.06-2.38,20.24s-89,69.66-183,69.66c-122.87,0-240.84-53.44-240.84-254.8,0-162.18,91.94-253.84,226.88-253.84C433.05,74.09,515,175.24,515,311.71v34.53c0,14.06-11.44,20.81-20.83,20.81Z"/><text class="cls-2" transform="translate(1133.86 671.44) scale(1.13 1)">a digital journ<tspan class="cls-3" x="807.76" y="0">e</tspan><tspan class="cls-4" x="873.79" y="0">y </tspan></text></svg>