<svg xmlns="http://www.w3.org/2000/svg" viewBox="0 0 1543.17 159.84"><defs><style>.cls-1{fill:none;stroke:#fff;stroke-miterlimit:10;stroke-width:2px;}.cls-2,.cls-3{fill:#fff;}.cls-3{font-size:23.39px;font-family:Barlow-Light, Barlow;}.cls-4{letter-spacing:-0.01em;}.cls-5{letter-spacing:0em;}.cls-6{letter-spacing:0em;}.cls-7{letter-spacing:0em;}.cls-8{letter-spacing:0em;}.cls-9{letter-spacing:-0.01em;}.cls-10{letter-spacing:-0.01em;}.cls-11{letter-spacing:0em;}.cls-12{letter-spacing:0em;}.cls-13{letter-spacing:-0.02em;}.cls-14{letter-spacing:-0.01em;}.cls-15{letter-spacing:-0.01em;}.cls-16{letter-spacing:-0.02em;}.cls-17{letter-spacing:-0.07em;}</style></defs><title>Asset 1</title><g id="Layer_2" data-name="Layer 2"><g id="Layer_1-2" data-name="Layer 1"><line class="cls-1" x1="64.51" y1="78.58" x2="1510.22" y2="78.58"/><path class="cls-2" d="M64.88,86.1a7.52,7.52,0,1,1,7.52-7.52A7.52,7.52,0,0,1,64.88,86.1Z"/><path class="cls-2" d="M1509.84,86.1a7.52,7.52,0,1,0-7.52-7.52A7.51,7.51,0,0,0,1509.84,86.1Z"/><circle class="cls-2" cx="64.36" cy="78.58" r="7.5"/><circle class="cls-2" cx="1510.36" cy="78.58" r="7.5"/><circle class="cls-2" cx="1269.36" cy="78.58" r="7.5"/><circle class="cls-2" cx="1028.36" cy="78.58" r="7.5"/><circle class="cls-2" cx="787.36" cy="78.58" r="7.5"/><circle class="cls-2" cx="546.36" cy="78.58" r="7.5"/><circle class="cls-2" cx="305.36" cy="78.58" r="7.5"/><text class="cls-3" transform="translate(34.35 19.88)">19:00 <tspan class="cls-4" x="-34.35" y="28.07">A</tspan><tspan class="cls-5" x="-20.83" y="28.07">c</tspan><tspan class="cls-6" x="-8.76" y="28.07">r</tspan><tspan x="-0.43" y="28.07">editación</tspan></text><text class="cls-3" transform="translate(276.74 126.88)">19:20 <tspan class="cls-7" x="-86.83" y="28.07">P</tspan><tspan x="-73.08" y="28.07">alab</tspan><tspan class="cls-8" x="-31.51" y="28.07">r</tspan><tspan x="-23.14" y="28.07">as de Bie</tspan><tspan class="cls-9" x="67.04" y="28.07">n</tspan><tspan class="cls-10" x="79.46" y="28.07">v</tspan><tspan x="90.02" y="28.07">enida</tspan></text><text class="cls-3" transform="translate(755.69 126.88)">20:00 <tspan x="-53.84" y="28.07">Claudio Gutiér</tspan><tspan class="cls-11" x="87.1" y="28.07">r</tspan><tspan class="cls-12" x="95.43" y="28.07">ez</tspan></text><text class="cls-3" transform="translate(1240.41 126.88)"><tspan class="cls-13">2</tspan><tspan x="12.02" y="0">1:00 </tspan><tspan class="cls-7" x="-83.91" y="28.07">P</tspan><tspan x="-70.15" y="28.07">anel de Co</tspan><tspan class="cls-14" x="33.15" y="28.07">n</tspan><tspan class="cls-15" x="45.57" y="28.07">v</tspan><tspan x="56.12" y="28.07">e</tspan><tspan class="cls-7" x="68.54" y="28.07">r</tspan><tspan x="76.89" y="28.07">sación</tspan></text><text class="cls-3" transform="translate(519.98 19.88)">19:30 <tspan x="-54.86" y="28.07">Cris</tspan><tspan class="cls-16" x="-15.42" y="28.07">t</tspan><tspan x="-7.42" y="28.07">obal U</tspan><tspan class="cls-6" x="54.88" y="28.07">r</tspan><tspan x="63.21" y="28.07">enda</tspan></text><text class="cls-3" transform="translate(997.32 19.88)">20:30 <tspan x="-34.5" y="28.07">Karim </tspan><tspan class="cls-17" x="29.62" y="28.07">T</tspan><tspan x="41.29" y="28.07">ouma</tspan></text><text class="cls-3" transform="translate(1482.36 19.88)"><tspan class="cls-13">2</tspan><tspan x="12.02" y="0">1:45 </tspan><tspan x="-3.8" y="28.07">Cóc</tspan><tspan class="cls-16" x="35.08" y="28.07">t</tspan><tspan x="43.08" y="28.07">el</tspan></text></g></g></svg>