<svg id="Capa_1" data-name="Capa 1" xmlns="http://www.w3.org/2000/svg" viewBox="0 0 1046.62 725.85"><defs><style>.cls-1{fill:#231f20;}</style></defs><title>Ocean avatar bk</title><path class="cls-1" d="M741.91,188.22c52.12,0,84.69,17.32,116,48.5,5.21,5.77,11.73,6.93,18.24,2.31l82.08-63.51c6.51-4.62,5.21-11.54,1.3-16.16C910,106.24,835.72,72.76,741.91,72.76c-84.68,0-155.87,24.4-204.62,70.36-48.37-46.32-119.81-72-204.85-72-127.67,0-224.08,56.58-259.25,153.57C58.86,264,52.34,300.93,52.34,362.12s6.52,98.15,20.85,137.41c35.17,97,131.58,153.57,259.25,153.57,84.05,0,154.82-25.06,203.16-70.36,48.79,47,120.65,72,206.31,72,93.81,0,168.06-33.48,217.57-85.44,3.91-5.77,5.21-11.55-1.3-16.17l-82.08-63.5c-6.51-4.62-13-4.62-18.24,1.15-31.26,31.18-63.83,48.5-116,48.5-56,0-99-24.25-117.25-71.59-10.42-27.71-13-61.2-13-103.92s2.6-75.05,13-102.76C642.9,212.47,685.89,188.22,741.91,188.22ZM449.69,464.89c-18.24,46.18-58.62,72.74-117.25,72.74s-100.31-26.56-118.55-72.74c-10.42-28.87-13-55.43-13-102.77s2.61-72.74,13-102.76c18.24-46.19,59.93-72.74,118.55-72.74s99,26.55,117.25,72.74c10.43,30,13,55.42,13,102.76S460.12,436,449.69,464.89Z"/></svg>