<?xml version="1.0" encoding="utf-8"?>
<!-- Generator: Adobe Illustrator 22.1.0, SVG Export Plug-In . SVG Version: 6.00 Build 0)  -->
<svg version="1.1" id="Capa_1" xmlns="http://www.w3.org/2000/svg" xmlns:xlink="http://www.w3.org/1999/xlink" x="0px" y="0px"
	 viewBox="0 0 1046.6 725.8" style="enable-background:new 0 0 1046.6 725.8;" xml:space="preserve">
<title>Ocean avatar bk</title>
<path d="M741.9,188.2c52.1,0,84.7,17.3,116,48.5c5.2,5.8,11.7,6.9,18.2,2.3l82.1-63.5c6.5-4.6,5.2-11.5,1.3-16.2
	C910,106.2,835.7,72.8,741.9,72.8c-84.7,0-155.9,24.4-204.6,70.4c-48.4-46.3-119.8-72-204.9-72c-127.7,0-224.1,56.6-259.2,153.6
	C58.9,264,52.3,300.9,52.3,362.1s6.5,98.1,20.9,137.4c35.2,97,131.6,153.6,259.2,153.6c84,0,154.8-25.1,203.2-70.4
	c48.8,47,120.7,72,206.3,72c93.8,0,168.1-33.5,217.6-85.4c3.9-5.8,5.2-11.5-1.3-16.2l-82.1-63.5c-6.5-4.6-13-4.6-18.2,1.1
	c-31.3,31.2-63.8,48.5-116,48.5c-56,0-99-24.2-117.2-71.6c-10.4-27.7-13-61.2-13-103.9s2.6-75,13-102.8
	C642.9,212.5,685.9,188.2,741.9,188.2z M449.7,464.9c-18.2,46.2-58.6,72.7-117.2,72.7s-100.3-26.6-118.6-72.7
	c-10.4-28.9-13-55.4-13-102.8s2.6-72.7,13-102.8c18.2-46.2,59.9-72.7,118.6-72.7s99,26.6,117.2,72.7c10.4,30,13,55.4,13,102.8
	S460.1,436,449.7,464.9z"/>
</svg>
